<svg width="183" height="183" viewBox="0 0 183 183" fill="none" xmlns="http://www.w3.org/2000/svg">
<rect x="3" y="3" width="177" height="177" rx="88.5" fill="#C0FFE7" stroke="#00012E" stroke-width="6"/>
<g clip-path="url(#clip0)">
<path d="M89 151.7V131.7L87.8 131.6C77.7 130.8 68.7 127.1 62 120.9C55 114.5 51 105.9 51 97.4C51 79.3 56.9 67 89.9 34L91.9 32L93.9 34C126.9 67 132.8 79.3 132.8 97.4C132.8 105.4 129.2 113.5 122.9 119.8C122.5 120.2 122.1 120.6 121.7 120.9C114.9 127.1 106 130.8 95.9 131.6L94.7 131.7V151.7H89ZM94.6 126.1L96 126C104.6 125.2 112.1 122 117.8 116.8C121.9 113 124.9 108.4 126.2 103.4L126.9 101L94.6 114.1V126.1ZM57.4 103.3C61.2 117.4 75.4 124.8 87.7 126L89.1 126.1V114.1L56.8 100.9L57.4 103.3ZM94.6 108L127 94.8V93.9C126.8 89.3 126 85.6 124.6 81.7L124.1 80.5L94.6 92.6V108ZM89 108V92.6L59.5 80.5L59 81.7C57.6 85.6 56.8 89.3 56.6 93.9V94.8L89 108ZM94.6 86.5L121.6 75.4L121 74.2C119.2 71.1 116.9 67.8 114 64.1L113.4 63.4L94.7 71V86.5H94.6ZM89 86.5V71.1L70.3 63.5L69.7 64.2C66.8 67.9 64.5 71.2 62.7 74.3L62 75.5L89 86.5ZM94.6 65.1L109.6 59L108.4 57.7C105.1 53.9 101.3 49.8 96.7 45.1L94.5 42.9V65.1H94.6ZM89 65.1V42.8L86.9 45C82.3 49.7 78.5 53.9 75.2 57.6L74 58.9L89 65.1Z" fill="#00012E"/>
</g>
<defs>
<clipPath id="clip0">
<rect width="81.7" height="119.7" fill="white" transform="translate(51 32)"/>
</clipPath>
</defs>
</svg>
