<svg xmlns="http://www.w3.org/2000/svg" viewBox="0 0 1367.72 788.05"><defs><style>.cls-1{fill:#00012e;}.cls-2{fill:#c0ffe7;}.cls-3{fill:#fff;}</style></defs><g id="Calque_2" data-name="Calque 2"><path class="cls-1" d="M1071.89,451.26l6.29-8.36-.45-.4a22.3,22.3,0,0,1-7.44-12.61,17,17,0,0,1,2.79-13.34c5.7-7.57,12-10.86,36.23-14.27l1.45-.2.2,1.45c3.41,24.19,2,31.18-3.71,38.75a16.94,16.94,0,0,1-11.2,6.27l-.85.1A22.32,22.32,0,0,1,1081,445l-.51-.33-6.29,8.36Zm10.39-8.94.62.38a19.32,19.32,0,0,0,12,3,15,15,0,0,0,7.76-3l1-.82-17.65-4.65Zm-8.39-21.24c-2.84,7.08.73,14.64,5.52,19l.54.48,3.78-5-9.35-15.68ZM1088,434.77l17.74,4.66.26-.38a20.17,20.17,0,0,0,2.82-5.85l.19-.65-16.14-4.25Zm-2.34-1.77,4.87-6.46L1082,412.2l-.57.36a20.23,20.23,0,0,0-4.85,4.33l-.29.36Zm9.11-7.23,14.8,3.9.09-.75a47.18,47.18,0,0,0,.23-6.42V422l-10.24-2.7ZM1092.4,424l4.87-6.46-5.42-9.1-.48.13a47.52,47.52,0,0,0-6.1,2l-.7.29Zm9.11-7.23,8.2,2.16-.07-.92c-.18-2.61-.48-5.54-.9-9l-.2-1.61Zm-2.34-1.76,7-9.33-1.6.25c-3.4.54-6.3,1.07-8.86,1.61l-.9.19Z"/><path class="cls-1" d="M1276.87,427.55l-4.94-9.22-.56.24a22.29,22.29,0,0,1-14.56,1.47,17,17,0,0,1-10.94-8.13c-4.48-8.35-4.82-15.47,2.23-38.87l.42-1.4,1.4.42c23.4,7.05,29.15,11.27,33.63,19.61a16.92,16.92,0,0,1,1,12.8q-.12.4-.27.81a22.23,22.23,0,0,1-9.26,11.33l-.51.33,5,9.22Zm-3.75-13.19.6-.4a19.29,19.29,0,0,0,7.8-9.64,15,15,0,0,0,.55-8.29l-.3-1.29-11.63,14.08Zm-22.8-1.28c5.24,5.54,13.6,5.47,19.56,2.94l.66-.28-3-5.54-18.15,1.91Zm18.33-7.05,11.67-14.14-.24-.4a20,20,0,0,0-4.13-5l-.5-.44-10.63,12.87Zm-2.58,1.38-3.83-7.12-16.6,1.74.09.67a19.88,19.88,0,0,0,1.9,6.21l.2.42Zm-2.75-11.3,9.74-11.8-.65-.39a47.15,47.15,0,0,0-5.72-2.91l-.45-.19L1259.5,389Zm-2.58,1.39-3.83-7.13-10.53,1.11-.08.48a48,48,0,0,0-.75,6.38l0,.76ZM1258,386.19l5.39-6.53-.86-.32c-2.45-.93-5.23-1.89-8.51-2.94l-1.55-.49Zm-2.58,1.39-5.53-10.29-.44,1.56c-.94,3.32-1.67,6.17-2.26,8.72l-.2.9Z"/><circle class="cls-2" cx="1320.11" cy="450.05" r="34.4"/><circle class="cls-2" cx="1275.79" cy="271.92" r="34"/><polygon class="cls-3" points="1266.05 316.62 1252.32 314.73 1264.07 269.86 1262 270.17 1240.91 309.27 1228.98 303.27 1249.41 245.55 1255.23 236.26 1290.45 249.81 1286.97 264.76 1266.05 316.62"/><circle class="cls-2" cx="1174.32" cy="214.6" r="33.03"/><path class="cls-3" d="M1189.89,193.9s-2.5-27.3-15.3-33.5-23.26,3.45-25.36,7.09-8.91,22.06,9.16,29.21l10.51,1.88Z"/><path class="cls-1" d="M1140.5,160.21l8.82,5.63.36-.49a22.27,22.27,0,0,1,12-8.39,17,17,0,0,1,13.51,1.75c8,5.09,11.76,11.15,17,35l.31,1.43-1.43.31c-23.85,5.28-30.94,4.41-38.92-.69a16.88,16.88,0,0,1-7.12-10.68c-.06-.27-.12-.55-.17-.84a22.27,22.27,0,0,1,2.56-14.41l.28-.53-8.82-5.63Zm9.71,9.67-.33.64a19.33,19.33,0,0,0-2.09,12.23,14.9,14.9,0,0,0,3.57,7.5l.89,1,3.27-18Zm20.53-10c-7.28-2.28-14.54,1.86-18.51,7l-.44.56,5.3,3.39L1172,160.26ZM1158.18,175l-3.27,18,.4.23a19.83,19.83,0,0,0,6,2.36l.66.14,3-16.42Zm1.58-2.47,6.82,4.35,13.64-9.63-.41-.54a20.17,20.17,0,0,0-4.69-4.5l-.38-.26Zm7.91,8.52-2.73,15.06.76,0a47.57,47.57,0,0,0,6.41-.26l.49-.05,1.9-10.42Zm1.58-2.47,6.82,4.35,8.65-6.11-.16-.46a47.55,47.55,0,0,0-2.47-5.93l-.34-.68Zm7.91,8.52-1.51,8.34.91-.14c2.59-.38,5.49-.91,8.86-1.59l1.59-.33Zm1.58-2.47,9.85,6.28-.38-1.57c-.8-3.35-1.55-6.2-2.29-8.71l-.26-.88Z"/><circle class="cls-2" cx="1186.24" cy="510.07" r="30.42"/><polygon class="cls-3" points="1189.59 476.1 1185.26 490.06 1200.09 526.85 1190.04 530.91 1182.78 535.17 1169.03 535.64 1151.72 530.32 1140.21 520.44 1139.65 518.1 1134.18 511.4 1161.44 487.94 1165.03 477.88 1165.91 462.92 1170.49 460.57 1179.26 464.7 1187.8 464.37 1192.72 467.72 1193.39 471.07 1189.59 476.1"/><circle class="cls-2" cx="1125.29" cy="328.71" r="30.42"/><polygon class="cls-3" points="1137.48 298.29 1124.55 302.66 1113.94 313.01 1117.69 335.77 1122.87 336.55 1128.3 334.99 1138.77 359.13 1151.32 356.59 1170.84 347.8 1173.17 344.95 1163.86 321.03 1171.52 317.28 1172.32 313.4 1160.24 295.04 1146.14 294.26 1141.62 295.59 1137.48 298.29"/><circle class="cls-2" cx="1283.46" cy="583.81" r="27.62"/><path class="cls-3" d="M1304.19,521.7s-26.93-5.16-36.43,5.42-3.13,23.3-.21,26.33,18.72,14.67,30.6-.71l4.72-9.57Z"/><path class="cls-1" d="M1257.28,559.17l8.19-6.52-.34-.5a22.3,22.3,0,0,1-4.05-14.06,17,17,0,0,1,6-12.22c7.41-5.91,14.36-7.51,38.64-4.76l1.45.16-.16,1.46c-2.75,24.28-5.87,30.69-13.28,36.59a16.85,16.85,0,0,1-12.41,3.27l-.85-.11a22.27,22.27,0,0,1-12.8-7.09l-.42-.44-8.18,6.51Zm12.31-6,.49.52a19.29,19.29,0,0,0,10.89,5.94,14.78,14.78,0,0,0,8.25-.94l1.22-.53-15.93-8.91Zm-2.82-22.66c-4.52,6.14-3,14.35.6,19.77l.39.6,4.92-3.92-5.13-17.52ZM1277,547.23l16,8.95.35-.3a20.2,20.2,0,0,0,4.2-5l.35-.58-14.57-8.15Zm-1.82-2.29,6.32-5-4.68-16-.64.21a20.18,20.18,0,0,0-5.78,3l-.37.27Zm10.62-4.73,13.36,7.48.27-.71a48.16,48.16,0,0,0,1.83-6.16l.11-.48-9.24-5.17Zm-1.82-2.29,6.33-5-3-10.16h-.5a49.57,49.57,0,0,0-6.41.41l-.75.11Zm10.63-4.72,7.39,4.14.17-.9c.47-2.58.92-5.49,1.36-8.91l.21-1.6Zm-1.83-2.29,9.14-7.28-1.62-.15c-3.42-.33-6.36-.55-9-.66l-.91,0Z"/><path class="cls-1" d="M1157.07,355.63a97.88,97.88,0,0,1-12.37,4c-3.55.84-7,1.32-7.77-.77L1128,336.12l-.29.12-.55.23c-2.34.92-6.77,2.24-10.09.81l-.62-.27-.15-.65c-2.84-12.71-4.24-21.35-3.74-23.11s4.85-6.34,11.73-12.48l.37-.33h.5a31.09,31.09,0,0,0,9.88-2.14,26.45,26.45,0,0,0,8.16-5l.36-.33h.49c9.73-.25,15.83.25,17.18,1.41,1.67,1.44,9.86,11.24,12.86,19.59l.19.51-.23.5a13.59,13.59,0,0,1-7.32,6.15c-.34.14-.73.27-1.24.43l-.31.09,8.87,22.68C1175.12,347,1169.4,350.81,1157.07,355.63Zm-36.16-37.52c1,.53,3.88,2.28,4.75,4.73l13.64,34.84.18,0c1.49.2,7.15-.83,16.63-4.54s14.34-6.79,15.29-8l.12-.14-13.68-34.95c-.64-2,.19-5.5.48-6.6l2.55.72c-.35,1.35-.84,3.94-.52,5l3.88,9.92.27-.08c.44-.13.88-.28,1.29-.44a11.65,11.65,0,0,0,5.54-4.22l.08-.13-.05-.15c-2.83-7.16-9.94-16.08-11.78-17.73l0,0,0,0c-1.27-.62-7.23-.83-11.94-.81h-.28l0,.27c-.33,3.07-4.08,6.51-9.32,8.56-5.52,2.16-10.85,2.05-13-.27l-.2-.23-.23.21c-4.2,3.84-8.94,8.55-9.41,9.83-.33,1.65,1.6,12,3.57,20.92l0,.18.18.05c2.44.56,5.67-.48,7.38-1.15l.47-.19.28-.11-3.89-9.93c-.43-1.25-2.21-2.57-3.45-3.25Zm8.31-14.84A17.23,17.23,0,0,0,1137,302c4.12-1.62,6.51-3.87,7.31-5.3l-.46-.39a29.79,29.79,0,0,1-7.88,4.53h0a34.73,34.73,0,0,1-6.75,1.87Z"/><path class="cls-1" d="M1226.82,302.88l.47-1.2c4.25-10.82,7.52-19.74,10.41-27.6,6.2-16.88,10.28-28,17-38.53l.66-1,37.27,14.67-.23,1.22c-2.28,12.27-6.87,23.18-13.83,39.7-3.25,7.73-6.93,16.47-11.23,27.35l-.48,1.2-16.35-3.82.52-1.56c4.72-14.23,8.84-27.17,11.51-41.42l-.63-.25c-7.77,12.24-13.58,24.52-19.83,38.15l-.69,1.49Zm40-38.86v0c-2.47,17.51-7.06,32.2-12.35,48.24l-.12.36,10.64,2.48.11-.28c4-10.15,7.54-18.48,10.63-25.84l0-.07c3.1-7.37,5.77-13.73,8-19.61l.09-.22-.18-.16c-4.13-3.58-3.4-10.87-2.6-14.9l.05-.28-8.86-3.5Zm-5.95-17.9c-2.25,3.64-6.88,9.66-12.54,9.09l-.26,0-.1.24c-2.38,5.76-4.74,12.19-7.48,19.64s-5.87,16-9.87,26.23l-.11.28L1240,307l.16-.35c7-15.33,13.72-29.21,23.85-43.7l0,0,5.41-13.74-8.42-3.31Zm-7.26-2.84c-1.37,2.58-2.69,5.32-4,8.38l-.27.61.65-.13c3.21-.6,6.12-4.16,8-7l.24-.35L1253.8,243Zm30.26,12c-.54,3.09-.86,7.34.69,10.05l.38.66.25-.72c1-3,1.91-5.82,2.64-8.55l.08-.3-4-1.56Zm-10.54-7.83,15.31,6,.08-.39c.14-.59.27-1.18.39-1.78l.06-.28-14.93-5.88Zm-17-9c-.32.52-.63,1-.93,1.57l-.21.35,15.31,6,.91-2.31-14.93-5.88Z"/><path class="cls-1" d="M1163.25,535.72c-8.56-2-16.79-6.8-24.47-14.16l-1.11-1.07,1.24-1.22-.27-.25a39.45,39.45,0,0,1-5.89-6.76l-.81-1.19,1.14-.86c6.78-5.1,25.14-19.65,28.71-25.66l0-.05,1.58-6.66a63.5,63.5,0,0,0,1-14.61l0-.51.27-.43a7,7,0,0,1,5-3,8.78,8.78,0,0,1,3,.19,17.49,17.49,0,0,1,7.24,4.22l.13.12.18-.05a19.8,19.8,0,0,1,8.84-.37,9.13,9.13,0,0,1,3.15,1.39,6.79,6.79,0,0,1,2.89,4.73l0,.46-.46.8c-2.59,4.4-5.26,8.95-6,12.7l-1.57,6.9,0,.08c2.09,9,6,17.4,10.63,27.18,1.28,2.75,2.61,5.59,3.95,8.55l.6,1.33-1.31.64a44.22,44.22,0,0,1-8.86,3.19l-.37.09.53,1.56-1.37.51C1181.28,537.08,1172,537.8,1163.25,535.72Zm2.36-41.9c-2.8,5.6-18.54,21.54-23.38,26.37l-.25.26.27.24c6.91,6.3,14.21,10.39,21.68,12.17s15.73,1.3,24.14-1.52l.33-.11-.11-.33c-2.23-6.73-9.33-28.69-8.63-34l2.93.69c-.28,3.48,3.88,18.14,8,30.74l.1.3.31-.07a42.11,42.11,0,0,0,6.91-2.3l.33-.14-.15-.32c-1-2.29-2.1-4.53-3.12-6.71l-.06-.13c-4.37-9.34-8.5-18.14-10.69-27.16l0-.2-20.26-4.83-.13.2c-5,7.1-22.3,20.57-27.46,24.53l-.28.21.21.28a38.06,38.06,0,0,0,4.52,4.93l.24.23.24-.24c3.2-3.22,19-19.26,21.6-24.32ZM1165,484l19.31,4.59.92-4L1166,480Zm6.86-21.52a6,6,0,0,0-1.9-.14,4.2,4.2,0,0,0-2.48,1.15l-.11.11v.16a65,65,0,0,1-.77,13l-.05.31,19.35,4.61.09-.31c1.15-3.8,3.63-8,5.83-11.77l.08-.13-.06-.16a4.07,4.07,0,0,0-1.57-2,6.37,6.37,0,0,0-2-.86c-2.1-.5-4.91-.3-8.35.6l-.81.21-.6-.57C1176.08,464.32,1173.85,462.92,1171.89,462.45Z"/><polygon class="cls-1" points="1164.54 414.44 1161.83 413.15 1171.24 393.37 1172.81 382.45 1175.78 382.88 1174.14 394.25 1164.54 414.44"/><rect class="cls-1" x="1172.57" y="391.35" width="7.67" height="3" transform="translate(-60.76 305.17) rotate(-14.41)"/><rect class="cls-1" x="1163.56" y="401" width="3" height="5.63" transform="translate(27.12 878.71) rotate(-41.77)"/><polygon class="cls-1" points="1246.21 173.45 1245.39 170.56 1270.28 163.51 1278.71 162.77 1278.98 165.76 1270.68 166.49 1246.21 173.45"/><rect class="cls-1" x="1265.51" y="160.99" width="7.16" height="3" transform="translate(620.83 1265.55) rotate(-66.85)"/><rect class="cls-1" x="1255.44" y="163.8" width="7.16" height="3" transform="translate(612.13 1258) rotate(-66.85)"/><circle class="cls-2" cx="185.8" cy="232.28" r="31.04"/><path class="cls-3" d="M190.68,172.55s-14.24,23.43-7.65,36,20.75,11.08,24.61,9.39,20.28-12.42,10-28.92l-7.32-7.76Z"/><path class="cls-1" d="M142.25,581.56l-9.45-4.5-.3.52a22.25,22.25,0,0,1-10.87,9.8A17,17,0,0,1,108,587.3c-8.55-4.08-13-9.62-21.2-32.65l-.49-1.38,1.38-.49c23-8.16,30.16-8.17,38.72-4.09a17,17,0,0,1,8.37,9.72l.27.82a22.31,22.31,0,0,1-.77,14.61l-.22.57,9.45,4.5Zm-10.83-8.41.25-.68a19.35,19.35,0,0,0,.58-12.39,14.92,14.92,0,0,0-4.47-7l-1-.86-1,18.22Zm-19.14,12.46c7.5,1.37,14.2-3.64,17.51-9.2l.36-.62-5.67-2.7L111,585.37Zm10.6-16.53,1-18.31-.42-.18a20.17,20.17,0,0,0-6.3-1.6l-.67-.06-1,16.67Zm-1.26,2.64-7.3-3.48L102,579.47l.46.49a20.35,20.35,0,0,0,5.21,3.88l.41.22Zm-8.9-7.48.87-15.28-.75.07a46.9,46.9,0,0,0-6.34,1l-.48.11-.6,10.57Zm-1.26,2.64-7.3-3.48-7.84,7.12.22.44a46.73,46.73,0,0,0,3.18,5.59l.42.62Zm-8.9-7.49.48-8.46-.88.25c-2.52.7-5.34,1.58-8.6,2.67l-1.54.52ZM101.3,562l-10.54-5,.57,1.52c1.2,3.23,2.29,6,3.34,8.36l.36.85Z"/><path class="cls-1" d="M140.65,459.09l3.53-9.85-.55-.25a22.29,22.29,0,0,1-10.85-9.83,17,17,0,0,1-1.29-13.57c3.19-8.91,8.26-13.94,30.35-24.38l1.33-.62.62,1.32C174.23,424,175,431.1,171.76,440a16.94,16.94,0,0,1-8.84,9.31c-.25.12-.51.24-.78.35a22.31,22.31,0,0,1-14.62.71l-.58-.16-3.53,9.85Zm7.28-11.62.69.18A19.42,19.42,0,0,0,161,447a14.9,14.9,0,0,0,6.52-5.15l.76-1.09-18.24.81ZM133.6,429.68c-.6,7.6,5.05,13.76,10.92,16.5l.65.3,2.12-5.92-13.58-12.2Zm17.51,8.89,18.32-.81.14-.44a19.89,19.89,0,0,0,1-6.43v-.67l-16.68.73Zm-2.75-1,2.73-7.62-12.42-11.15-.44.51a20.22,20.22,0,0,0-3.34,5.58l-.17.42Zm6.55-9.61,15.29-.67-.14-.75a50.14,50.14,0,0,0-1.68-6.19l-.16-.47-10.58.46Zm-2.76-1,2.73-7.61L147,412.29l-.42.26a47.27,47.27,0,0,0-5.23,3.72l-.59.49Zm6.56-9.61,8.46-.37-.33-.85c-1-2.44-2.11-5.15-3.53-8.29l-.66-1.48Zm-2.76-1,3.94-11-1.46.72c-3.08,1.52-5.7,2.89-8,4.17l-.8.44Z"/><path class="cls-1" d="M248.06,267.62l7.23,7.57.47-.38a22.22,22.22,0,0,1,13.64-5.3,17,17,0,0,1,12.72,4.92c6.54,6.85,8.76,13.62,8.21,38.05l0,1.46-1.47,0c-24.42-.55-31.1-3.08-37.64-9.93a16.93,16.93,0,0,1-4.37-12.07c0-.28,0-.57,0-.85a22.27,22.27,0,0,1,5.9-13.39l.41-.46-7.23-7.56Zm7.14,11.71-.48.55a19.37,19.37,0,0,0-4.94,11.37,14.81,14.81,0,0,0,1.68,8.13l.64,1.17,7.44-16.67Zm22.31-4.84c-6.53-3.95-14.56-1.65-19.63,2.37l-.57.45,4.35,4.55,17-6.68Zm-15.78,11.68-7.48,16.74.33.32A20.37,20.37,0,0,0,259.9,307l.61.29L267.32,292Zm2.12-2,5.59,5.85,15.53-6.1-.26-.63a20.3,20.3,0,0,0-3.5-5.48l-.3-.35Zm5.65,10.17-6.24,14,.73.2a46.21,46.21,0,0,0,6.3,1.27l.49.07,4.31-9.66Zm2.12-2,5.59,5.85,9.86-3.87-.05-.49a47.06,47.06,0,0,0-1-6.35l-.17-.74Zm5.66,10.16-3.46,7.74.92.08c2.61.24,5.55.43,9,.56l1.62.07Zm2.12-2,8.07,8.44v-1.62c0-3.44,0-6.39-.15-9l-.05-.92Z"/><path class="cls-1" d="M209.8,229.26l-3.52-9.85-.59.16a22.37,22.37,0,0,1-14.62-.72,17,17,0,0,1-9.61-9.67c-3.18-8.92-2.45-16,8-38.1l.63-1.32,1.32.62c22.08,10.46,27.15,15.49,30.33,24.41a16.9,16.9,0,0,1-.92,12.8l-.38.76a22.34,22.34,0,0,1-10.85,9.83l-.55.24,3.52,9.86Zm-1.75-13.6.65-.3a19.33,19.33,0,0,0,9.15-8.38,14.87,14.87,0,0,0,1.78-8.11l-.11-1.32-13.59,12.19ZM185.69,211c4.36,6.26,12.63,7.44,18.9,5.83l.7-.18-2.12-5.92-18.23-.82Zm19.18-4.24,13.65-12.25-.18-.42a20.25,20.25,0,0,0-3.33-5.58l-.44-.52-12.43,11.15Zm-2.76,1-2.72-7.62-16.68-.75v.67a20.14,20.14,0,0,0,1,6.43l.14.44Zm-1-11.59,11.39-10.22-.58-.48a47.82,47.82,0,0,0-5.23-3.73l-.42-.26-7.88,7.07Zm-2.76,1-2.72-7.62L185,189.05l-.16.47a46.93,46.93,0,0,0-1.68,6.2l-.15.74Zm-1-11.59,6.31-5.66-.8-.45c-2.29-1.28-4.9-2.64-8-4.17l-1.45-.72Zm-2.76,1-3.93-11-.67,1.48c-1.42,3.13-2.57,5.84-3.53,8.28l-.33.86Z"/><circle class="cls-2" cx="112.46" cy="340.33" r="37.37"/><polygon class="cls-3" points="124.71 306.67 104.77 330.79 76.7 324.81 66.33 329.69 64.73 338.14 69.44 346.16 89.94 352.67 104.07 358.42 110.72 357.67 119.8 352.13 145.35 319.76 148.4 315.14 129.56 300.55 124.71 306.67"/><circle class="cls-2" cx="267.02" cy="392.96" r="30.42"/><polygon class="cls-3" points="228.83 359.94 290.41 388.75 281.72 408.26 267.98 405.39 254.64 406.87 248.63 413.05 237.7 408.28 237.7 397.81 232.04 388.05 219.98 379.14 228.83 359.94"/><circle class="cls-2" cx="56.39" cy="471.95" r="34.15"/><circle class="cls-2" cx="219.89" cy="545.82" r="27.62"/><polygon class="cls-3" points="262.27 546.01 253.85 557.01 220.64 524.64 219.89 526.59 243.47 564.24 232.36 571.65 192.26 525.37 187.06 515.72 216.24 491.79 227.52 502.2 262.27 546.01"/><circle class="cls-2" cx="56.39" cy="214.6" r="30.42"/><path class="cls-3" d="M56.39,181.47s-13.06,5.61-9.16,21,19.1,17.73,19.1,17.73,16.5-4,19.36-13.77l-1-3.08-6.57-10.06V181.47l-10.41-2.54Z"/><path class="cls-1" d="M231.47,573.54l-.82-1c-7.4-9-13.59-16.16-19.06-22.51-11.74-13.62-19.48-22.59-25.43-33.56l-.59-1.09,30.94-25.44,1,.79c9.62,7.95,16.92,17.27,28,31.36,5.17,6.6,11,14.07,18.45,23.11l.82,1-11.29,12.44-1.11-1.21c-10.14-11-19.45-20.93-30.61-30.19l-.53.44c6.93,12.74,14.84,23.78,23.72,35.86l1,1.33ZM217,519.66l0,0c14.1,10.66,24.72,21.81,36.16,34.23l.26.28,7.34-8.1-.19-.23c-6.92-8.46-12.5-15.57-17.42-21.85l0-.06c-4.93-6.29-9.19-11.72-13.26-16.5l-.16-.18-.22.08c-5.14,1.87-11.16-2.31-14.29-5l-.22-.19-7.36,6.05Zm-18.54-3.5c2.09,3.74,5.11,10.71,1.85,15.38l-.14.21.16.21c3.88,4.87,8.35,10.06,13.53,16.07s11.12,12.9,18.13,21.37l.19.23L241.5,564l-.23-.3c-10-13.62-18.86-26.19-26.61-42.09v0l-9.38-11.4-7,5.74Zm-6,5c1.58,2.46,3.33,4.94,5.36,7.61l.4.53.2-.63c1-3.1-.66-7.37-2.27-10.4l-.19-.38-3.67,3Zm25.22-20.59c2.44,2,6,4.32,9.12,4.28h.76l-.51-.57c-2.13-2.39-4.16-4.5-6.19-6.47l-.22-.21-3.3,2.71Zm-12,5.41,12.7-10.45-.3-.27c-.45-.4-.9-.8-1.37-1.2l-.22-.19L204.1,504Zm-16.14,10.43c.29.53.6,1,.91,1.58l.21.34,12.7-10.45-1.58-1.91-12.39,10.19Z"/><path class="cls-1" d="M235.84,408.61l.22-1.14c2.13-11.15-3.45-19.72-17.07-26.2l-1.34-.63L228,358.42l64.87,30.18-10.33,22.21-1.36-.62c-13.72-6.23-23.87-5-31,3.82l-.73.91Zm1.86-14.34.08.2a22.58,22.58,0,0,1,1.46,12.15l0,.25,9.35,4.35.17-.19a22.92,22.92,0,0,1,8.83-6.21l.18-.07,3.14-17.31-12.65-5.89ZM261,403.82l.5-.09c5.6-1,12.09,0,19.29,3l.3.13,3.85-8.26-21.2-9.87Zm-39.33-24.6.29.15c6.4,3.28,11.12,7.19,14,11.64l.26.39,9.23-11.15-20-9.29Zm5.1-11,59.43,27.65,2.72-5.84L229.44,362.4Z"/><path class="cls-1" d="M69,347.91a15.84,15.84,0,0,1-5.45-9.58c-.48-3.24-.07-9.33,8-13.72a6,6,0,0,1,2.44-.72c3.75-.27,11,1.38,20.23,3.47,3.12.71,6.34,1.44,9.62,2.14l.2,0,.12-.15c5-6,22.09-27.62,24-30.07l.94-1.19,21.45,17.1L119.31,354.4a17.43,17.43,0,0,1-20.38,3.75l-.09,0c-4.33-2.31-12.53-5.69-27-8.72A7.2,7.2,0,0,1,69,347.91Zm9.12-20.84a19.66,19.66,0,0,0-3.93-.25,3.17,3.17,0,0,0-1.25.36c-4.89,2.66-7.13,6.37-6.49,10.72a12.84,12.84,0,0,0,4.38,7.74,4.19,4.19,0,0,0,1.63.88l1.12.24.12-.15c4.25-5.25,4.7-15.19,4.7-19.22v-.28Zm26.16,5.53c-3.67-.77-7.26-1.59-10.73-2.38-4.1-.93-8.33-1.89-11.83-2.55l-.38-.07V328c0,4.63-.66,13.28-4.37,19.09l-.25.39.44.1A120.76,120.76,0,0,1,94.76,353l.3.12.13-.3a16.55,16.55,0,0,1,7-8.05,17,17,0,0,1,18.8,1.5l.37.3.26.22,15.69-19.69-16.84-13.42-.2.25c-5.47,6.87-12.43,15.59-14.59,18.17l-.57.68Zm14.92,16a14.06,14.06,0,0,0-15.53-1.26A13.64,13.64,0,0,0,97.88,354l-.11.28.27.13c.78.37,1.5.73,2.13,1.07a14.69,14.69,0,0,0,12,.42,14.37,14.37,0,0,0,4.86-3.37l2.76-3.46-.24-.21Zm3.13-37.19,16.84,13.43,2.19-2.76L124.5,308.63Zm4-5.05,16.84,13.43,3.25-4.07-16.86-13.43Z"/><path class="cls-1" d="M36.75,208.61l9.79-3.69-.17-.59a22.26,22.26,0,0,1,.47-14.63,17,17,0,0,1,9.5-9.77c8.87-3.34,16-2.73,38.23,7.35l1.34.6-.61,1.34c-10.07,22.25-15,27.4-23.88,30.74a16.91,16.91,0,0,1-12.81-.7l-.77-.37a22.24,22.24,0,0,1-10-10.68l-.26-.55-9.79,3.69Zm13.56-2,.32.65a19.22,19.22,0,0,0,8.53,9,14.8,14.8,0,0,0,8.14,1.64l1.32-.12L56.2,204.41Zm4.29-22.43c-6.19,4.46-7.23,12.76-5.51,19l.19.69,5.89-2.21.5-18.25Zm4.56,19.1,12.48,13.44.42-.19a19.82,19.82,0,0,0,5.52-3.42l.51-.45L66.73,200.44Zm-1-2.74,7.57-2.85L66.16,181h-.67a19.9,19.9,0,0,0-6.41,1.07l-.44.14Zm11.56-1.23,10.42,11.22.47-.6a46.18,46.18,0,0,0,3.63-5.29l.26-.42-7.2-7.76Zm-1-2.74,7.57-2.85.3-10.59-.48-.15a46.8,46.8,0,0,0-6.22-1.57l-.74-.13Zm11.57-1.23L86,201.56l.44-.8c1.24-2.31,2.56-4.95,4-8.06l.69-1.46Zm-1-2.74,10.93-4.12-1.49-.64c-3.16-1.37-5.89-2.47-8.34-3.39l-.86-.32Z"/><polygon class="cls-1" points="138.3 197.2 130.08 179.04 124.6 170.76 127.1 169.1 132.76 177.69 141.04 195.96 138.3 197.2"/><rect class="cls-1" x="133.86" y="183.1" width="7.71" height="3" transform="translate(-91.28 209.28) rotate(-59.43)"/><rect class="cls-1" x="125.85" y="177.43" width="5.83" height="3"/><polygon class="cls-1" points="180.42 359.43 178.19 357.41 192.62 341.48 196.6 333.61 199.28 334.97 195.12 343.19 180.42 359.43"/><rect class="cls-1" x="192.49" y="342.36" width="8.71" height="3"/><rect class="cls-1" x="182.79" y="346.33" width="3" height="6.18" transform="matrix(0.99, -0.13, 0.13, 0.99, -43.46, 26.64)"/><polygon class="cls-1" points="291.75 452.07 283.7 452.05 262.37 449.02 262.79 446.05 284.01 449.06 291.75 449.06 291.75 452.07"/><rect class="cls-1" x="274.77" y="451.34" width="7.1" height="3" transform="translate(-248.45 381.86) rotate(-50.75)"/><rect class="cls-1" x="263.3" y="449.52" width="7.36" height="3" transform="translate(-233.75 296.21) rotate(-42.2)"/></g></svg>