<svg xmlns="http://www.w3.org/2000/svg" viewBox="0 0 1367.72 886.44"><defs><style>.cls-1{fill:#00012e;}.cls-2{fill:#c0ffe7;}.cls-3{fill:#fff;}</style></defs><g id="Calque_2" data-name="Calque 2"><path class="cls-1" d="M1027.48,470l7.23-9.6-.52-.47a25.61,25.61,0,0,1-8.55-14.49,19.62,19.62,0,0,1,3.21-15.34c6.55-8.69,13.83-12.48,41.64-16.4l1.67-.23.24,1.67c3.91,27.81,2.28,35.85-4.27,44.55a19.43,19.43,0,0,1-12.87,7.2c-.32.05-.65.09-1,.12a25.68,25.68,0,0,1-16.29-4.21l-.59-.38-7.23,9.61Zm12-10.27.7.43a22.17,22.17,0,0,0,13.83,3.49,17,17,0,0,0,8.91-3.42l1.21-.93-20.3-5.35Zm-9.65-24.42c-3.26,8.14.84,16.84,6.35,21.84l.61.55,4.35-5.77-10.74-18ZM1046,451.08l20.38,5.36.3-.44a23,23,0,0,0,3.25-6.72l.22-.75-18.56-4.88Zm-2.69-2,5.59-7.43-9.82-16.48-.65.41a23.16,23.16,0,0,0-5.57,5l-.34.41Zm10.47-8.31,17,4.48.1-.87a54.12,54.12,0,0,0,.27-7.37v-.57l-11.77-3.1Zm-2.69-2,5.6-7.43-6.23-10.45-.55.14a54.45,54.45,0,0,0-7,2.3l-.81.33Zm10.48-8.31,9.42,2.48-.08-1.05c-.21-3-.55-6.37-1-10.3l-.23-1.85Zm-2.69-2,8.07-10.73-1.84.3c-3.91.61-7.24,1.22-10.19,1.84l-1,.22Z"/><path class="cls-1" d="M1263.12,442.78l-5.69-10.6-.63.28a25.55,25.55,0,0,1-16.74,1.68,19.53,19.53,0,0,1-12.58-9.34c-5.15-9.59-5.54-17.79,2.56-44.68l.49-1.61,1.61.48c26.9,8.11,33.51,13,38.66,22.55a19.47,19.47,0,0,1,1.15,14.71c-.1.31-.2.62-.31.94a25.61,25.61,0,0,1-10.65,13l-.59.38,5.69,10.6Zm-4.31-15.16.69-.46a22.21,22.21,0,0,0,9-11.08,17.08,17.08,0,0,0,.63-9.53l-.34-1.49-13.36,16.19Zm-26.21-1.48c6,6.38,15.63,6.3,22.48,3.39l.76-.32-3.42-6.37L1231.55,425Zm21.07-8.1,13.42-16.25-.28-.46a22.84,22.84,0,0,0-4.74-5.77l-.59-.51-12.21,14.8Zm-3,1.6-4.4-8.2-19.08,2,.1.77a23.23,23.23,0,0,0,2.18,7.14l.23.48Zm-3.15-13,11.19-13.56-.74-.46a55.58,55.58,0,0,0-6.58-3.33l-.53-.23-7.74,9.39Zm-3,1.6-4.4-8.2-12.11,1.27-.09.56a55.48,55.48,0,0,0-.86,7.33l0,.87Zm-3.16-13,6.21-7.51-1-.37c-2.82-1.07-6-2.17-9.79-3.38l-1.78-.57Zm-3,1.59L1232.11,385l-.51,1.79c-1.08,3.81-1.93,7.09-2.59,10l-.24,1Z"/><circle class="cls-2" cx="1312.82" cy="468.65" r="39.55"/><circle class="cls-2" cx="1261.87" cy="263.88" r="39.09"/><polygon class="cls-3" points="1250.68 315.26 1234.9 313.08 1248.4 261.5 1246.02 261.86 1221.78 306.81 1208.07 299.91 1231.55 233.56 1238.24 222.88 1278.73 238.46 1274.73 255.65 1250.68 315.26"/><circle class="cls-2" cx="1145.23" cy="197.98" r="37.97"/><path class="cls-3" d="M1163.13,174.19s-2.88-31.39-17.59-38.52-26.74,4-29.15,8.16-10.25,25.35,10.53,33.57l12.08,2.17Z"/><path class="cls-1" d="M1106.35,135.46l10.14,6.46.42-.55a25.61,25.61,0,0,1,13.79-9.65,19.54,19.54,0,0,1,15.53,2c9.18,5.86,13.52,12.82,19.59,40.24l.36,1.65-1.64.36c-27.43,6.07-35.57,5.07-44.75-.79a19.43,19.43,0,0,1-8.18-12.28c-.07-.31-.14-.64-.19-1a25.59,25.59,0,0,1,2.93-16.57l.33-.62-10.14-6.47Zm11.17,11.12-.38.73a22.24,22.24,0,0,0-2.41,14.05,17.11,17.11,0,0,0,4.11,8.63l1,1.12,3.76-20.65Zm23.59-11.52c-8.37-2.62-16.71,2.14-21.27,8l-.51.66,6.1,3.89,17.14-12.11Zm-14.43,17.36-3.77,20.74.47.27a23.13,23.13,0,0,0,6.95,2.71l.76.16,3.43-18.88Zm1.81-2.84,7.85,5L1152,143.51l-.47-.62a23.12,23.12,0,0,0-5.39-5.16l-.44-.31Zm9.1,9.8-3.14,17.31.87,0a56,56,0,0,0,7.37-.31l.57,0,2.17-12Zm1.81-2.84,7.84,5,10-7L1157,154a56,56,0,0,0-2.83-6.81l-.4-.78Zm9.1,9.8-1.74,9.58,1-.16c3-.44,6.31-1,10.19-1.83l1.83-.37Zm1.81-2.84,11.32,7.22-.43-1.82c-.92-3.85-1.78-7.12-2.64-10l-.29-1Z"/><circle class="cls-2" cx="1158.93" cy="537.64" r="34.97"/><polygon class="cls-3" points="1162.79 498.59 1157.8 514.64 1174.86 556.93 1163.3 561.6 1154.95 566.5 1139.15 567.04 1119.25 560.93 1106.02 549.57 1105.38 546.88 1099.09 539.17 1130.42 512.2 1134.55 500.65 1135.56 483.44 1140.82 480.74 1150.91 485.49 1160.73 485.11 1166.38 488.96 1167.15 492.81 1162.79 498.59"/><circle class="cls-2" cx="1088.86" cy="329.16" r="34.97"/><polygon class="cls-3" points="1102.88 294.19 1088.02 299.22 1075.83 311.11 1080.14 337.27 1086.08 338.17 1092.33 336.38 1104.37 364.13 1118.79 361.21 1141.23 351.1 1143.91 347.83 1133.21 320.33 1142.01 316.02 1142.93 311.56 1129.05 290.45 1112.84 289.56 1107.64 291.08 1102.88 294.19"/><circle class="cls-2" cx="1270.7" cy="622.41" r="31.76"/><path class="cls-3" d="M1294.53,551s-31-5.94-41.88,6.22-3.61,26.8-.25,30.28,21.52,16.86,35.18-.82l5.43-11Z"/><path class="cls-1" d="M1240.6,594.09l9.41-7.49-.39-.58a25.6,25.6,0,0,1-4.65-16.17,19.59,19.59,0,0,1,6.94-14.05c8.52-6.78,16.51-8.63,44.42-5.47l1.67.19-.19,1.68c-3.16,27.91-6.74,35.28-15.26,42.07a19.43,19.43,0,0,1-14.27,3.75c-.32,0-.65-.08-1-.13a25.57,25.57,0,0,1-14.72-8.15l-.48-.51-9.41,7.5Zm14.14-7,.58.6a22.25,22.25,0,0,0,12.51,6.84,17.12,17.12,0,0,0,9.49-1.09l1.4-.6-18.32-10.25Zm-3.23-26c-5.2,7.07-3.4,16.51.69,22.73l.45.69,5.65-4.51-5.89-20.14Zm11.74,19.28,18.39,10.29.4-.35a22.9,22.9,0,0,0,4.83-5.7l.4-.67-16.75-9.37Zm-2.1-2.63,7.27-5.8L1263,553.51l-.74.24a23.23,23.23,0,0,0-6.64,3.43l-.43.31Zm12.22-5.43,15.35,8.59.31-.82a56.36,56.36,0,0,0,2.11-7.07l.13-.55-10.63-6Zm-2.1-2.64,7.28-5.79-3.42-11.68h-.57a54.68,54.68,0,0,0-7.37.47l-.86.12Zm12.22-5.42L1292,569l.19-1c.54-3,1.06-6.31,1.57-10.24l.24-1.85Zm-2.1-2.64,10.5-8.36-1.86-.18c-3.94-.38-7.31-.63-10.32-.76l-1,0Z"/><path class="cls-1" d="M1125.41,360.11a112.34,112.34,0,0,1-14.23,4.63c-4.08,1-8,1.52-8.93-.89L1092,337.68l-.33.14-.64.26c-2.69,1.05-7.78,2.57-11.6.93l-.71-.3-.17-.76c-3.27-14.6-4.88-24.53-4.31-26.57s5.58-7.29,13.49-14.33l.43-.39h.57a35.91,35.91,0,0,0,11.36-2.46,30.39,30.39,0,0,0,9.38-5.71l.41-.38h.57c11.18-.29,18.2.28,19.74,1.61,1.92,1.66,11.34,12.92,14.79,22.53l.22.59-.27.57c-.09.19-2.21,4.65-8.41,7.07-.39.15-.84.31-1.42.49l-.36.11,10.2,26.07C1146.15,350.2,1139.57,354.56,1125.41,360.11ZM1083.83,317c1.1.6,4.47,2.62,5.47,5.43l15.68,40,.2,0c1.71.24,8.22-.95,19.12-5.22s16.48-7.8,17.58-9.14l.13-.16-15.73-40.18c-.73-2.26.23-6.32.56-7.59l2.93.83c-.4,1.55-1,4.53-.6,5.79l4.46,11.41.31-.09c.51-.15,1-.32,1.49-.51a13.38,13.38,0,0,0,6.36-4.85l.1-.16-.07-.17c-3.24-8.23-11.42-18.48-13.54-20.38l0,0,0,0c-1.46-.72-8.3-1-13.72-.94h-.32l0,.32c-.38,3.52-4.68,7.47-10.71,9.83-6.34,2.49-12.47,2.36-14.92-.31l-.23-.25-.26.23c-4.83,4.41-10.28,9.83-10.83,11.3-.37,1.9,1.85,13.79,4.12,24.05l0,.21.21.05c2.8.65,6.51-.54,8.48-1.31l.54-.22.32-.14-4.47-11.41c-.49-1.43-2.54-2.95-4-3.73Zm9.56-17.06a19.83,19.83,0,0,0,8.92-1.52c4.73-1.85,7.48-4.44,8.4-6.09l-.52-.44a34.36,34.36,0,0,1-9.06,5.2h0a38.6,38.6,0,0,1-7.76,2.15Z"/><path class="cls-1" d="M1205.58,299.47l.54-1.39c4.88-12.44,8.65-22.68,12-31.72,7.13-19.41,11.82-32.18,19.53-44.3l.76-1.19,42.84,16.87-.26,1.4c-2.62,14.11-7.9,26.65-15.89,45.63-3.74,8.89-8,18.94-12.92,31.44l-.55,1.38-18.8-4.39.6-1.79c5.43-16.36,10.17-31.23,13.23-47.62l-.72-.28c-8.94,14.07-15.61,28.18-22.8,43.85l-.78,1.72Zm46-44.67v0c-2.84,20.13-8.11,37-14.2,55.45l-.14.42,12.23,2.85.13-.32c4.64-11.67,8.67-21.25,12.23-29.7l0-.09c3.57-8.47,6.65-15.78,9.17-22.54l.1-.25-.21-.19c-4.74-4.12-3.91-12.5-3-17.13l.06-.32-10.19-4Zm-6.84-20.59c-2.59,4.19-7.91,11.12-14.42,10.45l-.29,0-.12.28c-2.73,6.62-5.45,14-8.59,22.58s-6.75,18.37-11.35,30.15l-.13.32,10.9,6.25.18-.4c8.11-17.63,15.77-33.58,27.43-50.24l0,0,6.22-15.79-9.67-3.81Zm-8.34-3.26c-1.58,3-3.1,6.11-4.65,9.64l-.3.69.74-.14c3.69-.69,7-4.78,9.19-8.09l.26-.41-5.07-2Zm34.78,13.84c-.62,3.55-1,8.44.79,11.56l.44.76.29-.83c1.21-3.48,2.2-6.7,3-9.83l.09-.35-4.56-1.79Zm-12.12-9,17.6,6.93.1-.46c.16-.68.3-1.36.44-2l.07-.33-17.16-6.76Zm-19.49-10.4c-.37.6-.72,1.2-1.07,1.8l-.24.4,17.6,6.93,1-2.65-17.16-6.76Z"/><path class="cls-1" d="M1132.5,567.13c-9.84-2.34-19.3-7.82-28.12-16.28l-1.28-1.22,1.42-1.41-.31-.28a46.3,46.3,0,0,1-6.77-7.78l-.93-1.36,1.32-1c7.78-5.86,28.89-22.58,33-29.5l0-.05,1.82-7.65c.18-1,1.72-9.69,1.1-16.81l0-.58.32-.49a8,8,0,0,1,5.69-3.39,9.92,9.92,0,0,1,3.49.22,20.13,20.13,0,0,1,8.32,4.84l.16.14.2,0a22.83,22.83,0,0,1,10.16-.43,10.3,10.3,0,0,1,3.62,1.6,7.85,7.85,0,0,1,3.33,5.43l0,.54-.54.91c-3,5.07-6,10.29-6.92,14.6l-1.8,7.94,0,.09c2.4,10.3,7,20,12.21,31.25,1.48,3.15,3,6.42,4.55,9.83l.69,1.52-1.51.74a51.19,51.19,0,0,1-10.19,3.67l-.42.1.61,1.79-1.57.58C1153.23,568.69,1142.57,569.53,1132.5,567.13Zm2.72-48.17c-3.22,6.44-21.32,24.77-26.87,30.32l-.3.3.31.28c8,7.23,16.34,11.94,24.92,14,8.75,2.09,18.09,1.5,27.76-1.74l.38-.13-.13-.38c-2.57-7.74-10.72-33-9.91-39.08l3.36.8c-.32,4,4.46,20.86,9.21,35.34l.11.35.36-.09a48,48,0,0,0,7.94-2.64l.38-.16-.17-.37c-1.21-2.64-2.41-5.21-3.58-7.71l-.08-.16c-5-10.73-9.76-20.85-12.29-31.21l-.06-.24-23.28-5.54-.16.22c-5.79,8.17-25.62,23.65-31.56,28.2l-.32.24.24.32a41.94,41.94,0,0,0,5.19,5.67l.29.26.27-.27c3.68-3.71,21.84-22.14,24.83-27.95Zm-.67-11.32,22.2,5.28,1-4.62L1135.65,503Zm7.89-24.73a6.41,6.41,0,0,0-2.19-.17,4.75,4.75,0,0,0-2.84,1.32l-.14.13,0,.18a74.64,74.64,0,0,1-.89,14.91l-.06.37,22.25,5.29.11-.36c1.31-4.36,4.17-9.23,6.69-13.52l.09-.16-.06-.18a4.67,4.67,0,0,0-1.81-2.32,6.94,6.94,0,0,0-2.36-1c-2.41-.58-5.63-.35-9.59.68l-.93.25-.69-.66C1147.25,485.05,1144.7,483.44,1142.44,482.91Z"/><polygon class="cls-1" points="1133.99 427.71 1130.87 426.23 1141.69 403.49 1143.5 390.93 1146.91 391.43 1145.03 404.5 1133.99 427.71"/><rect class="cls-1" x="1143.22" y="401.17" width="8.82" height="3.45" transform="translate(-64.16 298.32) rotate(-14.41)"/><rect class="cls-1" x="1132.86" y="412.26" width="3.45" height="6.47" transform="translate(11.59 861.38) rotate(-41.77)"/><polygon class="cls-1" points="1227.88 150.67 1226.93 147.35 1255.54 139.25 1265.24 138.4 1265.54 141.84 1256.01 142.68 1227.88 150.67"/><rect class="cls-1" x="1250.06" y="136.35" width="8.23" height="3.45" transform="translate(634.22 1237.02) rotate(-66.85)"/><rect class="cls-1" x="1238.48" y="139.58" width="8.23" height="3.45" transform="translate(624.23 1228.34) rotate(-66.85)"/><circle class="cls-2" cx="203.38" cy="218.3" r="35.68"/><path class="cls-3" d="M209,149.65s-16.36,26.93-8.78,41.41,23.85,12.73,28.29,10.8,23.31-14.28,11.5-33.25l-8.41-8.93Z"/><path class="cls-1" d="M153.31,619.83l-10.86-5.18-.35.6a25.64,25.64,0,0,1-12.5,11.27,19.53,19.53,0,0,1-15.66-.09c-9.83-4.69-15-11.07-24.37-37.54L89,587.3l1.58-.56c26.48-9.38,34.68-9.39,44.51-4.7a19.47,19.47,0,0,1,9.63,11.18c.1.31.21.62.3.93a25.6,25.6,0,0,1-.88,16.81l-.25.65,10.86,5.18Zm-12.45-9.67.29-.78a22.23,22.23,0,0,0,.66-14.24,17,17,0,0,0-5.13-8l-1.15-1-1.2,21Zm-22,14.32c8.62,1.57,16.32-4.18,20.13-10.57l.42-.71-6.53-3.11L117.36,624.2Zm12.19-19,1.2-21-.49-.21a23.2,23.2,0,0,0-7.24-1.84l-.78-.07-1.09,19.16Zm-1.45,3-8.4-4L107,617.43l.53.56a23.28,23.28,0,0,0,6,4.46l.47.25Zm-10.23-8.61,1-17.56-.87.08a54.83,54.83,0,0,0-7.28,1.2l-.55.13-.7,12.15Zm-1.45,3-8.4-4-9,8.19.25.51a53.94,53.94,0,0,0,3.65,6.41l.49.73Zm-10.23-8.61.55-9.72-1,.28c-2.9.81-6.14,1.81-9.89,3.07l-1.77.6Zm-1.45,3-12.12-5.77.66,1.74c1.38,3.71,2.64,6.86,3.83,9.62l.42,1Z"/><path class="cls-1" d="M151.48,479l4.05-11.32-.63-.29a25.63,25.63,0,0,1-12.47-11.3,19.55,19.55,0,0,1-1.49-15.6c3.68-10.25,9.5-16,34.9-28l1.52-.72.72,1.52c12,25.4,12.83,33.56,9.16,43.81a19.46,19.46,0,0,1-10.16,10.7c-.29.14-.59.27-.9.4a25.61,25.61,0,0,1-16.8.82l-.68-.19-4,11.33Zm8.36-13.36.8.21a22.25,22.25,0,0,0,14.24-.77,17.1,17.1,0,0,0,7.49-5.92l.88-1.25-21,.92Zm-16.46-20.45c-.7,8.74,5.79,15.82,12.54,19l.75.35,2.44-6.8-15.61-14Zm20.13,10.22,21.05-.93.16-.51a23.4,23.4,0,0,0,1.11-7.39l0-.77-19.17.84Zm-3.17-1.14,3.13-8.75L149.2,432.73l-.5.59a23,23,0,0,0-3.84,6.41l-.2.49Zm7.53-11,17.57-.78-.16-.85a56.26,56.26,0,0,0-1.93-7.13l-.18-.53-12.16.53Zm-3.17-1.14,3.14-8.76-9.06-8.13-.48.3a53.81,53.81,0,0,0-6,4.28l-.67.55Zm7.53-11,9.73-.43-.38-1c-1.1-2.81-2.42-5.93-4.05-9.53l-.77-1.7ZM169.06,430l4.53-12.64-1.67.83c-3.55,1.75-6.55,3.31-9.18,4.79l-.92.51Z"/><path class="cls-1" d="M275,258.94l8.31,8.69.54-.44a25.62,25.62,0,0,1,15.69-6.08,19.55,19.55,0,0,1,14.61,5.65c7.52,7.87,10.08,15.66,9.44,43.74l0,1.69-1.68,0c-28.08-.64-35.75-3.55-43.27-11.42a19.45,19.45,0,0,1-5-13.87c0-.33,0-.66.05-1a25.57,25.57,0,0,1,6.79-15.39l.46-.52-8.31-8.7Zm8.2,13.46-.54.62a22.16,22.16,0,0,0-5.68,13.08,17.1,17.1,0,0,0,1.93,9.35l.73,1.34,8.56-19.17Zm25.66-5.57c-7.51-4.54-16.75-1.9-22.57,2.73l-.65.51,5,5.23,19.53-7.68Zm-18.15,13.42-8.6,19.25.39.37a23.1,23.1,0,0,0,6.11,4.29l.7.34L297.09,287Zm2.44-2.32,6.42,6.72,17.86-7-.3-.71a23,23,0,0,0-4-6.3l-.35-.41Zm6.5,11.68-7.17,16.06.84.24a55.65,55.65,0,0,0,7.23,1.46l.56.08,5-11.12Zm2.44-2.33,6.42,6.73,11.33-4.46-.05-.56a54.36,54.36,0,0,0-1.14-7.3l-.19-.84Zm6.5,11.68-4,8.9,1.05.09c3,.28,6.38.49,10.33.65l1.87.07Zm2.44-2.32,9.27,9.7v-1.86c0-4,0-7.35-.17-10.35l0-1.06Z"/><path class="cls-1" d="M231,214.84l-4.05-11.33-.68.18a25.55,25.55,0,0,1-16.8-.83,19.52,19.52,0,0,1-11.05-11.11c-3.66-10.25-2.82-18.41,9.2-43.8l.72-1.52,1.52.72c25.38,12,31.2,17.8,34.87,28a19.48,19.48,0,0,1-1.06,14.72c-.14.29-.29.59-.44.88a25.61,25.61,0,0,1-12.47,11.29l-.64.29,4,11.32Zm-2-15.64.76-.34a22.3,22.3,0,0,0,10.51-9.63,17.1,17.1,0,0,0,2-9.33l-.12-1.52-15.62,14Zm-25.7-5.36c5,7.2,14.53,8.55,21.73,6.7l.8-.2-2.43-6.81-21-.94ZM225.3,189,241,174.89l-.21-.49A22.73,22.73,0,0,0,237,168l-.5-.6-14.28,12.82Zm-3.17,1.13L219,181.34l-19.17-.86,0,.78a23.14,23.14,0,0,0,1.1,7.39l.16.51Zm-1.19-13.32L234,165l-.67-.56a52.89,52.89,0,0,0-6-4.28l-.48-.3L217.81,168Zm-3.17,1.14-3.13-8.76-12.16-.55-.18.54a55.13,55.13,0,0,0-1.94,7.12l-.16.86Zm-1.18-13.32,7.25-6.5-.92-.52c-2.63-1.47-5.63-3-9.18-4.8l-1.67-.82Zm-3.17,1.13-4.52-12.64-.77,1.7c-1.63,3.61-3,6.72-4.06,9.53l-.38,1Z"/><circle class="cls-2" cx="119.07" cy="342.52" r="42.96"/><polygon class="cls-3" points="133.16 303.82 110.22 331.56 77.96 324.67 66.03 330.28 64.2 340 69.61 349.22 93.18 356.71 109.43 363.31 117.07 362.45 127.5 356.08 156.88 318.87 160.39 313.56 138.73 296.79 133.16 303.82"/><circle class="cls-2" cx="296.75" cy="403.02" r="34.97"/><polygon class="cls-3" points="252.85 365.06 323.64 398.17 313.64 420.61 297.85 417.31 282.52 419 275.6 426.11 263.04 420.63 263.04 408.59 256.54 397.37 242.67 387.14 252.85 365.06"/><circle class="cls-2" cx="54.61" cy="493.83" r="39.26"/><circle class="cls-2" cx="242.57" cy="578.74" r="31.76"/><polygon class="cls-3" points="291.29 578.96 281.61 591.61 243.43 554.39 242.56 556.64 269.68 599.91 256.9 608.43 210.81 555.23 204.83 544.14 238.37 516.63 251.34 528.6 291.29 578.96"/><circle class="cls-2" cx="54.61" cy="197.98" r="34.97"/><path class="cls-3" d="M54.61,159.9s-15,6.45-10.53,24.14,22,20.38,22,20.38,19-4.59,22.27-15.84l-1.19-3.53-7.55-11.57V159.9L67.6,157Z"/><path class="cls-1" d="M255.88,610.6l-.94-1.14c-8.51-10.31-15.63-18.58-21.92-25.87-13.5-15.66-22.38-26-29.23-38.59l-.68-1.25,35.57-29.25,1.09.91c11.06,9.15,19.46,19.85,32.17,36.06,5.95,7.58,12.68,16.17,21.2,26.56l.95,1.15-13,14.3-1.28-1.39c-11.66-12.69-22.36-24.06-35.19-34.7l-.61.5c8,14.64,17.06,27.33,27.26,41.22l1.12,1.53ZM239.2,548.67l0,0c16.21,12.26,28.41,25.07,41.56,39.35l.3.32,8.44-9.3-.22-.27c-7.95-9.72-14.37-17.9-20-25.12l-.06-.07c-5.67-7.23-10.56-13.47-15.24-19l-.18-.21-.26.1c-5.9,2.15-12.82-2.66-16.42-5.71l-.25-.22-8.46,7Zm-21.31-4c2.4,4.3,5.87,12.32,2.13,17.69l-.17.24.18.23c4.46,5.61,9.6,11.58,15.56,18.49s12.78,14.82,20.84,24.56l.22.27,10.76-6.49-.26-.35c-11.47-15.65-21.69-30.1-30.59-48.38l0,0-10.78-13.11-8,6.6Zm-6.9,5.71c1.81,2.82,3.83,5.68,6.16,8.75l.46.6.23-.72c1.19-3.56-.76-8.47-2.61-12l-.22-.43-4.22,3.46Zm29-23.68c2.81,2.27,6.91,5,10.49,4.93h.88l-.58-.66c-2.46-2.75-4.79-5.18-7.12-7.43l-.26-.25-3.79,3.12Zm-13.74,6.23,14.61-12-.35-.31-1.57-1.38-.26-.21-14.24,11.71Zm-18.56,12,1.05,1.81.24.4,14.61-12-1.82-2.21L207.51,544.6Z"/><path class="cls-1" d="M260.91,421l.25-1.32c2.44-12.81-4-22.66-19.62-30.1l-1.55-.74,11.88-25.54L326.44,398l-11.88,25.54-1.56-.71c-15.77-7.17-27.44-5.73-35.67,4.39l-.84,1ZM263,404.53l.1.22a26,26,0,0,1,1.67,14l0,.29,10.76,5,.2-.22a26.39,26.39,0,0,1,10.14-7.14l.21-.08,3.6-19.9-14.53-6.76Zm26.73,11,.57-.1c6.44-1.18,13.9,0,22.17,3.46l.36.14,4.41-9.49-24.36-11.34Zm-45.22-28.28.34.18c7.36,3.77,12.78,8.27,16.11,13.37l.3.46,10.62-12.83-23-10.67Zm5.87-12.62,68.32,31.78,3.12-6.71-68.32-31.78Z"/><path class="cls-1" d="M69.09,351.23a18.19,18.19,0,0,1-6.27-11c-.55-3.73-.09-10.73,9.17-15.77a6.93,6.93,0,0,1,2.81-.83c4.31-.31,12.67,1.59,23.25,4,3.59.82,7.29,1.66,11.07,2.46l.22.05.15-.18c5.69-6.95,25.38-31.76,27.61-34.56l1.09-1.37,24.65,19.65-35.89,45A20.06,20.06,0,0,1,103.51,363l-.1-.05c-5-2.64-14.41-6.53-31-10A8.37,8.37,0,0,1,69.09,351.23Zm10.48-24a23.37,23.37,0,0,0-4.52-.3,3.6,3.6,0,0,0-1.44.43c-5.61,3-8.19,7.31-7.45,12.32a14.7,14.7,0,0,0,5,8.89,5.11,5.11,0,0,0,1.88,1l1.28.27.14-.18c4.88-6,5.4-17.45,5.4-22.08v-.33Zm30.08,6.35c-4.22-.89-8.35-1.82-12.34-2.73-4.71-1.07-9.58-2.18-13.6-2.94l-.44-.08v.45c0,5.33-.75,15.26-5,21.94l-.28.45.51.12a138.76,138.76,0,0,1,20.25,6.24l.35.14.14-.35a19.1,19.1,0,0,1,8.06-9.25,19.58,19.58,0,0,1,21.62,1.72l.43.35.29.25,18-22.63-19.36-15.43-.23.29c-6.29,7.89-14.3,17.92-16.78,20.89l-.64.78ZM126.79,352a16.17,16.17,0,0,0-17.85-1.45,15.69,15.69,0,0,0-6.63,7.71l-.13.33.32.15c.89.42,1.71.83,2.45,1.22a16.81,16.81,0,0,0,13.8.48,16.57,16.57,0,0,0,5.58-3.86l3.17-4-.27-.24Zm3.6-42.75,19.36,15.43,2.52-3.16-19.36-15.44Zm4.62-5.8,19.36,15.43,3.73-4.68-19.37-15.44Z"/><path class="cls-1" d="M32,191.09l11.26-4.24-.2-.67a25.66,25.66,0,0,1,.54-16.82,19.54,19.54,0,0,1,10.93-11.23c10.19-3.84,18.36-3.14,44,8.44l1.53.7-.69,1.53c-11.59,25.59-17.27,31.51-27.46,35.35a19.49,19.49,0,0,1-14.73-.81l-.89-.43a25.61,25.61,0,0,1-11.5-12.28l-.3-.63-11.25,4.24Zm15.6-2.28.36.75a22.21,22.21,0,0,0,9.81,10.35,17.08,17.08,0,0,0,9.36,1.88l1.51-.15L54.39,186.26ZM52.55,163c-7.11,5.12-8.3,14.66-6.33,21.83l.22.8,6.77-2.55.58-21ZM57.8,185l14.34,15.45.49-.21A23.36,23.36,0,0,0,79,196.28l.58-.52L66.5,181.7Zm-1.19-3.15,8.7-3.28.54-19.18h-.78a23.22,23.22,0,0,0-7.37,1.22l-.51.17Zm13.3-1.41,12,12.89.54-.68a55.14,55.14,0,0,0,4.18-6.08l.29-.49-8.28-8.92Zm-1.19-3.15,8.7-3.28.34-12.17-.54-.17a54.89,54.89,0,0,0-7.15-1.82l-.86-.15ZM82,175.86,88.64,183l.5-.92c1.43-2.66,3-5.68,4.64-9.26l.8-1.69Zm-1.19-3.15L93.39,168l-1.71-.74c-3.63-1.57-6.77-2.84-9.59-3.89l-1-.37Z"/><polygon class="cls-1" points="148.78 177.98 139.32 157.1 133.02 147.58 135.9 145.68 142.41 155.55 151.92 176.56 148.78 177.98"/><rect class="cls-1" x="143.66" y="161.77" width="8.86" height="3.45" transform="translate(-68 207.85) rotate(-59.43)"/><rect class="cls-1" x="134.46" y="155.25" width="6.7" height="3.45"/><polygon class="cls-1" points="197.2 364.47 194.64 362.15 211.22 343.84 215.79 334.8 218.88 336.36 214.09 345.81 197.2 364.47"/><rect class="cls-1" x="211.06" y="344.85" width="10.02" height="3.45"/><rect class="cls-1" x="199.91" y="349.41" width="3.45" height="7.1" transform="translate(-43.77 28.91) rotate(-7.4)"/><polygon class="cls-1" points="325.17 470.97 315.92 470.95 291.4 467.47 291.89 464.05 316.28 467.52 325.17 467.52 325.17 470.97"/><rect class="cls-1" x="305.65" y="470.13" width="8.16" height="3.45" transform="translate(-251.64 413.17) rotate(-50.75)"/><rect class="cls-1" x="292.47" y="468.04" width="8.46" height="3.45" transform="translate(-238.64 321.03) rotate(-42.2)"/></g></svg>