<svg width="183" height="183" viewBox="0 0 183 183" fill="none" xmlns="http://www.w3.org/2000/svg">
<rect x="3" y="3" width="177" height="177" rx="88.5" fill="#C0FFE7" stroke="#00012E" stroke-width="6"/>
<path d="M71.9001 85.3H37.8V99.2H71.9001V85.3Z" stroke="#00012E" stroke-width="5.5" stroke-miterlimit="10"/>
<path d="M146.8 85.3H112.7V99.2H146.8V85.3Z" stroke="#00012E" stroke-width="5.5" stroke-miterlimit="10"/>
<path d="M83.6001 99.2H56.2001V101.3C56.2001 107.8 61.4001 113 67.9001 113H80.1001L83.6001 99.2Z" stroke="#00012E" stroke-width="5.5" stroke-miterlimit="10"/>
<path d="M97.9 99.2L94.4 113.1H118.1C124.6 113.1 129.8 107.9 129.8 101.4V99.3H97.9V99.2Z" stroke="#00012E" stroke-width="5.5" stroke-miterlimit="10"/>
<path d="M118.1 71.5H104.9L101.4 85.4H129.8V83.3C129.8 76.7 124.6 71.5 118.1 71.5Z" stroke="#00012E" stroke-width="5.5" stroke-miterlimit="10"/>
<path d="M90.6001 71.5H67.9001C61.4001 71.5 56.2001 76.7 56.2001 83.2V85.3H87.1001L90.6001 71.5Z" stroke="#00012E" stroke-width="5.5" stroke-miterlimit="10"/>
<path d="M96 40V56.2" stroke="#00012E" stroke-width="5.5" stroke-miterlimit="10"/>
<path d="M120.1 48.1L108.6 59.6" stroke="#00012E" stroke-width="5.5" stroke-miterlimit="10"/>
<path d="M71.9 48.1L83.4 59.6" stroke="#00012E" stroke-width="5.5" stroke-miterlimit="10"/>
<path d="M96 144.6V128.3" stroke="#00012E" stroke-width="5.5" stroke-miterlimit="10"/>
<path d="M120.1 136.4L108.6 125" stroke="#00012E" stroke-width="5.5" stroke-miterlimit="10"/>
<path d="M71.9 136.4L83.4 125" stroke="#00012E" stroke-width="5.5" stroke-miterlimit="10"/>
</svg>
