<svg width="183" height="183" viewBox="0 0 183 183" fill="none" xmlns="http://www.w3.org/2000/svg">
<rect x="3" y="3" width="177" height="177" rx="88.5" fill="#C0FFE7" stroke="#00012E" stroke-width="6"/>
<path d="M148.8 81.8499H131.7C131.4 74.1499 125 67.95 117.3 67.95H102L97.1 87.3499H109.2V95.75H95L90.1 115.15H117.3C125.1 115.15 131.4 108.95 131.7 101.25H148.8V81.8499ZM104.1 81.8499L106.2 73.45H117.3C122 73.45 125.9 77.1499 126.3 81.8499H109.2H104.1ZM117.3 109.55H97.1L99.2 101.25H109.2H126.3C125.9 105.85 122 109.55 117.3 109.55ZM143.3 95.75H131.8H114.7V87.3499H131.8H143.4V95.75H143.3Z" fill="#00012E"/>
<path d="M88.4 87.3499L93.2999 67.95H67.1C59.3 67.95 53 74.1499 52.7 81.8499H34.2V101.25H52.7C53 108.95 59.4 115.15 67.1 115.15H81.4L86.2999 95.75H73.7999V87.3499H88.4V87.3499ZM67.1 73.45H86.2999L84.2 81.8499H73.7999H58.1C58.5 77.1499 62.3 73.45 67.1 73.45ZM79.2999 101.25L77.2 109.55H67.1C62.4 109.55 58.5 105.85 58.1 101.15H73.7999H79.2999V101.25ZM68.2999 95.75H52.6H39.7V87.3499H52.6H68.2999V95.75V95.75Z" fill="#00012E"/>
<path d="M97.8999 39.25H92.3999V55.45H97.8999V39.25Z" fill="#00012E"/>
<path d="M117.284 45.4486L105.827 56.902L109.716 60.7916L121.172 49.3382L117.284 45.4486Z" fill="#00012E"/>
<path d="M73.021 45.3873L69.132 49.2764L80.587 60.7314L84.476 56.8423L73.021 45.3873Z" fill="#00012E"/>
<path d="M97.8999 127.55H92.3999V143.75H97.8999V127.55Z" fill="#00012E"/>
<path d="M109.754 122.262L105.865 126.151L117.32 137.606L121.209 133.717L109.754 122.262Z" fill="#00012E"/>
<path d="M80.6253 122.342L69.1687 133.795L73.0572 137.685L84.5138 126.231L80.6253 122.342Z" fill="#00012E"/>
</svg>
