<svg id="Calque_1" data-name="Calque 1" xmlns="http://www.w3.org/2000/svg" viewBox="0 0 300 59.75"><path d="M59.75,0H0V59.75H300V0ZM3.59,56.16V3.59H56.16V56.16Zm292.82,0H59.75V3.59H296.41Z"/><polygon points="89.12 45.5 89.12 41.25 79.5 41.25 79.5 12.33 75.25 12.33 75.25 45.5 89.12 45.5"/><polygon points="115.43 15.49 114.43 12.53 104.54 16.05 105.54 18.46 115.43 15.49"/><path d="M105.56,43.56a7.42,7.42,0,0,0,2.35,1.58,7.42,7.42,0,0,0,8.15-1.58,7.6,7.6,0,0,0,1.58-2.34,7.43,7.43,0,0,0,.58-2.9V36.94H114v1.38a2.93,2.93,0,0,1-.25,1.22A3.09,3.09,0,0,1,112,41.23a2.94,2.94,0,0,1-1.23.25,3,3,0,0,1-1.23-.25,3.36,3.36,0,0,1-1-.67,3.29,3.29,0,0,1-.67-1,2.93,2.93,0,0,1-.25-1.22V35.48l.74-.29,2.11-.8c.75-.27,1.45-.54,2.09-.8s1-.41,1.27-.49h0c3.57-1.32,4.32-3.63,4.32-5.34V27.7a7.38,7.38,0,0,0-.58-2.86,7.42,7.42,0,0,0-3.92-3.92,7.57,7.57,0,0,0-5.81,0,7.77,7.77,0,0,0-2.35,1.58A7.41,7.41,0,0,0,104,24.84a7.31,7.31,0,0,0-.58,2.91V38.32a7.26,7.26,0,0,0,.58,2.9A7.41,7.41,0,0,0,105.56,43.56Zm2.09-15.81a2.94,2.94,0,0,1,.25-1.23,3.13,3.13,0,0,1,.67-1,3.21,3.21,0,0,1,1-.68,3,3,0,0,1,1.23-.25,2.94,2.94,0,0,1,1.23.25,3,3,0,0,1,1,.68,3.06,3.06,0,0,1,.68,1A2.73,2.73,0,0,1,114,27.7a.74.74,0,0,1-.28.67,5.42,5.42,0,0,1-1.26.74l-1.19.45-1.81.67c-.59.21-1.19.44-1.79.67Z"/><path d="M126.77,43.52a6.88,6.88,0,0,0,2.16,1.59,6.11,6.11,0,0,0,2.71.61H133V41.48h-1.38a2,2,0,0,1-.92-.22,2.64,2.64,0,0,1-.84-.65,3.15,3.15,0,0,1-.6-1,3.55,3.55,0,0,1-.22-1.28V24.81h4.86V20.56h-4.86V14.27h-4.24V38.32a7.71,7.71,0,0,0,.52,2.85A7.16,7.16,0,0,0,126.77,43.52Z"/><path d="M143.86,27.75a3.1,3.1,0,0,1,.24-1.23,3.18,3.18,0,0,1,1.69-1.69,2.94,2.94,0,0,1,1.23-.25,3,3,0,0,1,1.23.25,3.11,3.11,0,0,1,1.68,1.69,2.94,2.94,0,0,1,.25,1.23V45.5h4.24V27.75a7.31,7.31,0,0,0-.58-2.91,7.41,7.41,0,0,0-1.57-2.34,7.53,7.53,0,0,0-2.35-1.58,7.43,7.43,0,0,0-2.9-.58,7.23,7.23,0,0,0-3.1.67l-.06,0V10.49h-4.25v35h4.25Z"/><path d="M164.29,17.84a2.49,2.49,0,0,0,1.73-.69,2.44,2.44,0,0,0,.77-1.82,2.47,2.47,0,0,0-.77-1.82,2.53,2.53,0,0,0-1.73-.68,2.51,2.51,0,1,0,0,5Z"/><polygon points="162.55 45.18 166.79 45.18 166.79 20.2 161.06 20.2 161.06 24.49 162.55 24.49 162.55 45.18"/><path d="M175.55,43.56a7.34,7.34,0,0,0,5.24,2.16,7,7,0,0,0,3.12-.7l.05,0v7.54h4.24v-32H184V21l-.07,0a7.23,7.23,0,0,0-3.1-.67,7.43,7.43,0,0,0-2.9.58A7.42,7.42,0,0,0,174,24.84a7.31,7.31,0,0,0-.58,2.91V38.32a7.34,7.34,0,0,0,2.16,5.24Zm2.08-15.81a2.94,2.94,0,0,1,.25-1.23,3.09,3.09,0,0,1,1.69-1.69,3.13,3.13,0,0,1,2.45,0,3.09,3.09,0,0,1,1.69,1.69,2.94,2.94,0,0,1,.25,1.23V38.32a2.93,2.93,0,0,1-.25,1.22A3.09,3.09,0,0,1,182,41.23a2.94,2.94,0,0,1-1.23.25,3,3,0,0,1-1.23-.25,3.36,3.36,0,0,1-1-.67,3.29,3.29,0,0,1-.67-1,2.93,2.93,0,0,1-.25-1.22Z"/><path d="M197,43.56a7.34,7.34,0,0,0,5.24,2.16,7.06,7.06,0,0,0,3.12-.7l.05,0v.5h4.24V20.56h-4.24V38.32a2.93,2.93,0,0,1-.25,1.22,3.09,3.09,0,0,1-1.69,1.69,2.94,2.94,0,0,1-1.23.25,3,3,0,0,1-1.23-.25,3.36,3.36,0,0,1-1-.67,3.29,3.29,0,0,1-.67-1,2.93,2.93,0,0,1-.25-1.22V20.56H194.8V38.32A7.34,7.34,0,0,0,197,43.56Z"/><path d="M218.14,43.56a7.44,7.44,0,0,0,10.5,0,7.41,7.41,0,0,0,1.57-2.34,7.26,7.26,0,0,0,.58-2.9V36.94h-4.24v1.38a2.93,2.93,0,0,1-.25,1.22,3.29,3.29,0,0,1-.67,1,3.36,3.36,0,0,1-1,.67,3,3,0,0,1-1.23.25,2.94,2.94,0,0,1-1.23-.25,3.09,3.09,0,0,1-1.69-1.69,2.93,2.93,0,0,1-.25-1.22V35.48l.75-.29,2.11-.8c.74-.27,1.45-.54,2.08-.8s1-.41,1.27-.49h0c3.57-1.32,4.32-3.63,4.32-5.34V27.7a7.2,7.2,0,0,0-.58-2.86,7.41,7.41,0,0,0-1.57-2.34,7.65,7.65,0,0,0-2.35-1.58,7.57,7.57,0,0,0-5.81,0,7.42,7.42,0,0,0-3.92,3.92,7.48,7.48,0,0,0-.58,2.91V38.32a7.43,7.43,0,0,0,.58,2.9A7.6,7.6,0,0,0,218.14,43.56Zm2.08-15.81a2.94,2.94,0,0,1,.25-1.23,3.18,3.18,0,0,1,1.69-1.69,2.94,2.94,0,0,1,1.23-.25,3,3,0,0,1,1.23.25,3.2,3.2,0,0,1,1.69,1.68,2.88,2.88,0,0,1,.24,1.19.72.72,0,0,1-.28.67,5.59,5.59,0,0,1-1.25.74l-1.2.45-1.8.67-1.8.67Z"/><path d="M239.12,43.52a7.07,7.07,0,0,0,2.16,1.6,6.24,6.24,0,0,0,2.71.6h1.38V41.48H244a2,2,0,0,1-.92-.22,2.64,2.64,0,0,1-.84-.65,3.15,3.15,0,0,1-.6-1,3.55,3.55,0,0,1-.22-1.28V24.81h4.86V20.56h-4.86V14.27h-4.24V38.32a7.71,7.71,0,0,0,.52,2.85A7.16,7.16,0,0,0,239.12,43.52Z"/><path d="M253.92,43.52a7,7,0,0,0,2.16,1.6,6.23,6.23,0,0,0,2.7.6h1.38V41.48h-1.38a1.94,1.94,0,0,1-.91-.22,2.64,2.64,0,0,1-.84-.65,3.15,3.15,0,0,1-.6-1,3.55,3.55,0,0,1-.22-1.28V24.81h4.85V20.56h-4.85V14.27H252V38.32a7.92,7.92,0,0,0,.52,2.85A7.36,7.36,0,0,0,253.92,43.52Z"/><path d="M268.24,43.56a7.43,7.43,0,0,0,10.5,0,7.41,7.41,0,0,0,1.57-2.34,7.26,7.26,0,0,0,.59-2.9V36.94h-4.25v1.38a3.09,3.09,0,0,1-.24,1.22,3.5,3.5,0,0,1-.68,1,3.13,3.13,0,0,1-1,.67,3.15,3.15,0,0,1-2.46,0,3.13,3.13,0,0,1-1-.67,3.5,3.5,0,0,1-.68-1,3.09,3.09,0,0,1-.24-1.22V35.48l.74-.29,2.11-.8c.75-.27,1.45-.54,2.09-.8s1-.41,1.27-.49h0c3.57-1.32,4.32-3.63,4.32-5.34V27.7a7.21,7.21,0,0,0-.59-2.86,7.41,7.41,0,0,0-1.57-2.34,7.53,7.53,0,0,0-2.35-1.58,7.54,7.54,0,0,0-5.8,0,7.53,7.53,0,0,0-2.35,1.58,7.41,7.41,0,0,0-1.57,2.34,7.31,7.31,0,0,0-.59,2.91V38.32a7.26,7.26,0,0,0,.59,2.9A7.41,7.41,0,0,0,268.24,43.56Zm2.09-15.81a3.1,3.1,0,0,1,.24-1.23,3.32,3.32,0,0,1,.68-1,3.17,3.17,0,0,1,4.48,0,3.06,3.06,0,0,1,.68,1,2.88,2.88,0,0,1,.24,1.19.74.74,0,0,1-.27.67,5.64,5.64,0,0,1-1.26.74l-1.2.45-1.8.67c-.59.21-1.19.44-1.79.67Z"/><path d="M93.24,16.62l.73.48-.52.7a7,7,0,0,1-.53.61l-.4.4,1.67,1.58.37-.41a7.45,7.45,0,0,0,1.8-3.06,5.84,5.84,0,0,0,.22-1.27c0-.36,0-.61,0-.77v-.09A2.08,2.08,0,0,0,96,13.26a2.11,2.11,0,0,0-1.54-.64,2.09,2.09,0,0,0-1.53.64,2.05,2.05,0,0,0-.64,1.53,2.08,2.08,0,0,0,.64,1.54A2.37,2.37,0,0,0,93.24,16.62Z"/><path d="M14.62,18.76A15,15,0,0,0,10.55,30a19.5,19.5,0,0,0,4.87,11.77L9.14,48.07l2.53,2.54L18,44.32A19.58,19.58,0,0,0,29.73,49.2h.75A14.8,14.8,0,0,0,41,45.12c5.78-5.78,7.83-11.55,7.83-32.41V10.92H47C26.17,10.92,20.41,13,14.62,18.76ZM37,25.25l7.53,3.16a39.67,39.67,0,0,1-.94,5.27L33,29.24Zm2.74-2.74,5.43-5.43c-.05,2.88-.14,5.38-.3,7.58ZM17.16,21.3c4.37-4.37,8.35-6.47,25.51-6.76L18,39.24C12.67,32.89,13.28,25.17,17.16,21.3ZM29.89,45.61a15.86,15.86,0,0,1-9.39-3.83l3.07-3.07,12.86,5.4A12.11,12.11,0,0,1,29.89,45.61Zm9.6-4.11L26.31,36l4-4,12.15,5.1A16.67,16.67,0,0,1,39.49,41.5Z"/></svg>