<svg width="132" height="134" viewBox="0 0 132 134" fill="none" xmlns="http://www.w3.org/2000/svg">
<path d="M132 133.305H0V0.968262H132V133.305ZM7.925 125.36H124.075V8.91347H7.925V125.36Z" fill="white"/>
<path fill-rule="evenodd" clip-rule="evenodd" d="M67.318 109.969C66.7858 109.969 66.2537 109.957 65.7156 109.933C56.7558 109.527 47.9211 105.732 40.4822 99.1532L27.0099 113.078L21.5742 107.459L35.0461 93.5356C28.6783 85.846 25.0047 76.7128 24.6121 67.4502C24.2041 57.757 27.3854 48.6689 33.3401 42.5144C45.7345 29.7043 58.0933 25.1572 102.792 25.1572H106.636V29.1298C106.636 75.3281 102.236 88.0955 89.8419 100.912C84.2243 106.712 76.0875 109.969 67.318 109.969ZM66.0467 101.993C58.9919 101.678 51.9677 98.6949 45.936 93.5165L52.541 86.6899L80.1296 98.6569C76.1343 101.04 71.2303 102.234 66.0467 101.993ZM86.6462 92.867L58.4134 80.6205L66.9685 71.7784L92.9921 83.0669C91.2758 86.9875 89.169 89.9977 86.6462 92.867ZM95.5002 75.5381C96.3192 72.2521 96.9863 68.4259 97.5081 63.8622L81.3917 56.8713L72.8409 65.7089L95.5002 75.5381ZM98.2428 55.5641L87.2641 50.8018L98.8809 38.7953C98.7784 45.156 98.5672 50.6986 98.2428 55.5641ZM93.4442 33.1783L40.4976 87.9013C29.1508 73.8206 30.4675 56.7289 38.7804 48.1372C48.1524 38.4566 56.6575 33.8119 93.4442 33.1783Z" fill="white"/>
</svg>
