<svg width="183" height="183" viewBox="0 0 183 183" fill="none" xmlns="http://www.w3.org/2000/svg">
<rect x="3" y="3" width="177" height="177" rx="88.5" fill="#C0FFE7" stroke="#00012E" stroke-width="6"/>
<g clip-path="url(#clip0)">
<path d="M110.7 29.8999C106.8 41.0999 118.2 38.9999 112.7 51.0999" stroke="#00012E" stroke-width="5.5" stroke-miterlimit="10"/>
<path d="M122.9 29.8999C119 41.0999 130.4 38.9999 124.9 51.0999" stroke="#00012E" stroke-width="5.5" stroke-miterlimit="10"/>
<path d="M126.2 59.8999H111.3L110.1 82.5999H92.2001V67.4999L69.5 82.5999V67.4999L46.8 82.5999V135.6H107.3H130L126.2 59.8999Z" stroke="#00012E" stroke-width="5.5" stroke-miterlimit="10"/>
<path d="M65.8 113.5H58.2V121.1H65.8V113.5Z" fill="#00012E"/>
<path d="M83.1 113.5H75.5V121.1H83.1V113.5Z" fill="#00012E"/>
<path d="M100.5 113.5H92.8999V121.1H100.5V113.5Z" fill="#00012E"/>
<path d="M117.8 113.5H110.2V121.1H117.8V113.5Z" fill="#00012E"/>
<path d="M65.8 95.8H58.2V103.4H65.8V95.8Z" fill="#00012E"/>
<path d="M83.1 95.8H75.5V103.4H83.1V95.8Z" fill="#00012E"/>
<path d="M100.5 95.8H92.8999V103.4H100.5V95.8Z" fill="#00012E"/>
<path d="M117.8 95.8H110.2V103.4H117.8V95.8Z" fill="#00012E"/>
</g>
<defs>
<clipPath id="clip0">
<rect width="88.9" height="109.3" fill="white" transform="translate(44 29)"/>
</clipPath>
</defs>
</svg>
