<svg id="livetype" xmlns="http://www.w3.org/2000/svg" viewBox="0 0 126.41 40"><defs><style>.cls-1{fill:#a6a6a6;}.cls-2{fill:#fff;}</style></defs><path class="cls-1" d="M116.88,0H7.42a13.39,13.39,0,0,0-2,.18,6.44,6.44,0,0,0-1.9.63A6.07,6.07,0,0,0,1.9,2,6.07,6.07,0,0,0,.72,3.62,6.72,6.72,0,0,0,.1,5.52a11.19,11.19,0,0,0-.18,2c0,.31,0,.62,0,.92V31.56c0,.31,0,.61,0,.92a11.19,11.19,0,0,0,.18,2,6.68,6.68,0,0,0,.62,1.91A6.19,6.19,0,0,0,1.9,38a6.07,6.07,0,0,0,1.62,1.18,6.74,6.74,0,0,0,1.9.63,13.39,13.39,0,0,0,2,.18H118.89a13.51,13.51,0,0,0,2-.18,6.74,6.74,0,0,0,1.9-.63A6.07,6.07,0,0,0,124.41,38a6.19,6.19,0,0,0,1.18-1.61,6.78,6.78,0,0,0,.62-1.91,14.88,14.88,0,0,0,.19-2v-.92c0-.36,0-.73,0-1.1V9.54c0-.37,0-.73,0-1.1V7.52a14.88,14.88,0,0,0-.19-2,6.72,6.72,0,0,0-.62-1.9,6.47,6.47,0,0,0-2.8-2.8,6.74,6.74,0,0,0-1.9-.63,13.51,13.51,0,0,0-2-.18h-2Z"/><path d="M8.35,39.12H7.44A11.8,11.8,0,0,1,5.57,39a5.73,5.73,0,0,1-1.65-.55,5.38,5.38,0,0,1-1.4-1,5.19,5.19,0,0,1-1-1.4A5.39,5.39,0,0,1,1,34.33a11.71,11.71,0,0,1-.17-1.87c0-.21,0-.92,0-.92V8.44s0-.69,0-.89A13,13,0,0,1,1,5.68,5.69,5.69,0,0,1,1.5,4a5.38,5.38,0,0,1,1-1.4,5.46,5.46,0,0,1,1.41-1,5.63,5.63,0,0,1,1.65-.55A11.8,11.8,0,0,1,7.44.89l.91,0H118l.91,0a11.58,11.58,0,0,1,1.86.16,5.85,5.85,0,0,1,1.67.55,5.5,5.5,0,0,1,2.95,4.07,13.14,13.14,0,0,1,.17,1.88c0,.29,0,.59,0,.89s0,.74,0,1.1V30.46c0,.37,0,.72,0,1.08s0,.62,0,.93a11.47,11.47,0,0,1-.17,1.85,5.45,5.45,0,0,1-.54,1.67,5.33,5.33,0,0,1-1,1.39,5.41,5.41,0,0,1-1.4,1,5.85,5.85,0,0,1-1.67.55,11.7,11.7,0,0,1-1.87.16H8.35Z"/><g id="_Group_" data-name=" Group "><g id="_Group_2" data-name=" Group 2"><g id="_Group_3" data-name=" Group 3"><path id="_Path_" data-name=" Path " class="cls-2" d="M24.67,20.3A4.93,4.93,0,0,1,27,16.15,5.08,5.08,0,0,0,23,14c-1.68-.18-3.31,1-4.16,1s-2.19-1-3.61-1a5.31,5.31,0,0,0-4.48,2.73c-1.93,3.34-.49,8.26,1.37,11,.92,1.33,2,2.81,3.42,2.75s1.91-.88,3.58-.88,2.15.88,3.59.85,2.43-1.33,3.32-2.67a10.85,10.85,0,0,0,1.52-3.09A4.78,4.78,0,0,1,24.67,20.3Z"/><path id="_Path_2" data-name=" Path 2" class="cls-2" d="M21.94,12.21a4.91,4.91,0,0,0,1.12-3.49,4.94,4.94,0,0,0-3.21,1.66,4.64,4.64,0,0,0-1.15,3.36A4.11,4.11,0,0,0,21.94,12.21Z"/></g></g></g><g id="_Group_4" data-name=" Group 4"><path class="cls-2" d="M35.56,14.7V9.58H33.68V8.73h4.68v.85H36.48V14.7Z"/><path class="cls-2" d="M42.67,13.49a1.84,1.84,0,0,1-2,1.3,2,2,0,0,1-2.09-2,1.93,1.93,0,0,1,0-.34,2.08,2.08,0,0,1,1.79-2.33l.29,0c1.25,0,2,.86,2,2.27v.31H39.54v.05A1.19,1.19,0,0,0,40.63,14h.11a1.08,1.08,0,0,0,1.07-.54ZM39.54,12h2.27a1.08,1.08,0,0,0-1-1.16h-.1A1.15,1.15,0,0,0,39.54,12v0Zm.64-2.58,1-1.43h1L41.09,9.45Z"/><path class="cls-2" d="M44,8.44h.89V14.7H44Z"/><path class="cls-2" d="M50.11,13.49a1.83,1.83,0,0,1-2,1.3,2,2,0,0,1-2.1-2,1.94,1.94,0,0,1,0-.34,2.07,2.07,0,0,1,1.78-2.33l.29,0c1.26,0,2,.86,2,2.27v.31H47v.05A1.2,1.2,0,0,0,48.07,14h.11a1.07,1.07,0,0,0,1.07-.54ZM47,12h2.28a1.1,1.1,0,0,0-1-1.16h-.1A1.15,1.15,0,0,0,47,12Zm.64-2.58,1-1.43h1L48.54,9.45Z"/><path class="cls-2" d="M54.3,11.67a1,1,0,0,0-1.06-.76c-.74,0-1.2.57-1.2,1.53S52.5,14,53.24,14a1,1,0,0,0,1.06-.74h.87a1.77,1.77,0,0,1-1.92,1.54,2.08,2.08,0,0,1-2.14-2c0-.12,0-.24,0-.35a2.05,2.05,0,0,1,1.77-2.31,1.94,1.94,0,0,1,.34,0,1.78,1.78,0,0,1,1.93,1.56Z"/><path class="cls-2" d="M56.35,8.44h.88v2.48h.07a1.37,1.37,0,0,1,1.37-.8,1.47,1.47,0,0,1,1.56,1.4.82.82,0,0,1,0,.27V14.7h-.89V12c0-.72-.33-1.08-1-1.08a1,1,0,0,0-1.13,1,.54.54,0,0,0,0,.18V14.7h-.89Z"/><path class="cls-2" d="M61.34,13.43c0-.81.6-1.28,1.68-1.35L64.24,12v-.39c0-.47-.32-.74-.93-.74s-.84.18-.94.5h-.86c.1-.77.82-1.27,1.84-1.27s1.77.56,1.77,1.51V14.7h-.86v-.63h-.07a1.52,1.52,0,0,1-1.35.71,1.37,1.37,0,0,1-1.49-1.22A.57.57,0,0,1,61.34,13.43Zm2.9-.39v-.37l-1.1.07c-.62,0-.91.25-.91.65s.36.64.84.64a1.06,1.06,0,0,0,1.16-.95v0Z"/><path class="cls-2" d="M66.51,10.2h.86v.69h.06a1.24,1.24,0,0,1,1.22-.77,1.87,1.87,0,0,1,.4,0V11a2.84,2.84,0,0,0-.5-.06,1.07,1.07,0,0,0-1.15,1V14.7h-.89Z"/><path class="cls-2" d="M69.86,15.15h.91c.08.33.45.54,1,.54S73,15.34,73,14.74v-.86h-.07a1.53,1.53,0,0,1-1.38.76c-1.15,0-1.87-.89-1.87-2.24s.72-2.28,1.87-2.28a1.57,1.57,0,0,1,1.42.8H73V10.2h.85v4.54c0,1-.81,1.68-2.08,1.68S70,15.92,69.86,15.15ZM73,12.39c0-.89-.47-1.47-1.22-1.47s-1.2.58-1.2,1.47.43,1.48,1.2,1.48S73,13.3,73,12.39Z"/><path class="cls-2" d="M79.11,13.49a1.83,1.83,0,0,1-2,1.3,2,2,0,0,1-2.1-2c0-.11,0-.23,0-.34a2.08,2.08,0,0,1,1.78-2.33l.3,0c1.25,0,2,.86,2,2.27v.31H76v.05A1.19,1.19,0,0,0,77.07,14h.12a1.09,1.09,0,0,0,1.07-.54ZM76,12h2.27a1.08,1.08,0,0,0-1-1.16h-.11A1.15,1.15,0,0,0,76,12v0Z"/><path class="cls-2" d="M80.36,10.2h.86v.69h.06a1.24,1.24,0,0,1,1.22-.77,1.72,1.72,0,0,1,.39,0V11A2.63,2.63,0,0,0,82.4,11a1.07,1.07,0,0,0-1.15,1V14.7h-.89Z"/><path class="cls-2" d="M86.1,12.45c0-1.42.73-2.33,1.87-2.33a1.52,1.52,0,0,1,1.38.79h.06V8.44h.89V14.7h-.85V14h-.07a1.57,1.57,0,0,1-1.41.79C86.82,14.78,86.1,13.87,86.1,12.45Zm.91,0c0,1,.46,1.53,1.21,1.53s1.21-.59,1.21-1.53-.47-1.53-1.21-1.53S87,11.5,87,12.45Z"/><path class="cls-2" d="M91.5,13.43c0-.81.61-1.28,1.68-1.35L94.4,12v-.39c0-.47-.32-.74-.92-.74s-.84.18-.94.5h-.86c.09-.77.82-1.27,1.84-1.27s1.76.56,1.76,1.51V14.7h-.85v-.63h-.07a1.54,1.54,0,0,1-1.36.71,1.37,1.37,0,0,1-1.49-1.22S91.5,13.47,91.5,13.43ZM94.4,13v-.37l-1.1.07c-.62,0-.9.25-.9.65s.35.64.83.64a1.06,1.06,0,0,0,1.16-.95v0Z"/><path class="cls-2" d="M96.67,10.2h.86v.71h.07a1.36,1.36,0,0,1,1.34-.8,1.47,1.47,0,0,1,1.57,1.35,1.82,1.82,0,0,1,0,.33V14.7h-.89V12c0-.72-.31-1.08-1-1.08a1,1,0,0,0-1.08,1V14.7h-.89Z"/><path class="cls-2" d="M103.52,10.11c1,0,1.67.47,1.76,1.27h-.85c-.08-.33-.41-.54-.91-.54s-.87.23-.87.58.22.44.71.55l.75.18c.86.19,1.26.56,1.26,1.22,0,.85-.79,1.42-1.87,1.42s-1.77-.49-1.85-1.28h.89a.92.92,0,0,0,1,.56c.56,0,1-.25,1-.61s-.21-.44-.66-.55l-.79-.18c-.85-.2-1.25-.59-1.25-1.26S102.5,10.11,103.52,10.11Z"/></g><path class="cls-2" d="M35.1,18.07H37V30.49H35.1Z"/><path class="cls-2" d="M39.2,22.61l1-4.54H42l-1.23,4.54Z"/><path class="cls-2" d="M49.05,27.13H44.31l-1.13,3.36h-2l4.49-12.42h2.08l4.48,12.42h-2ZM44.8,25.58h3.76l-1.85-5.45h-.05Z"/><path class="cls-2" d="M61.9,26c0,2.81-1.5,4.62-3.77,4.62A3.06,3.06,0,0,1,55.28,29h-.05v4.48H53.38v-12h1.79v1.51h0a3.19,3.19,0,0,1,2.88-1.6C60.39,21.34,61.9,23.15,61.9,26ZM60,26c0-1.83-.94-3-2.39-3s-2.37,1.23-2.37,3,1,3,2.37,3S60,27.81,60,26Z"/><path class="cls-2" d="M71.87,26c0,2.81-1.51,4.62-3.78,4.62A3.08,3.08,0,0,1,65.24,29h0v4.48H63.34v-12h1.8v1.51h0a3.21,3.21,0,0,1,2.89-1.6C70.35,21.34,71.87,23.15,71.87,26ZM70,26c0-1.83-.95-3-2.39-3s-2.38,1.23-2.38,3,1,3,2.38,3S70,27.81,70,26Z"/><path class="cls-2" d="M78.45,27c.14,1.23,1.34,2,3,2s2.7-.81,2.7-1.92-.68-1.54-2.29-1.94l-1.61-.39c-2.28-.55-3.34-1.62-3.34-3.35,0-2.14,1.87-3.61,4.52-3.61s4.42,1.47,4.48,3.61H84c-.12-1.24-1.14-2-2.64-2s-2.52.75-2.52,1.86c0,.87.65,1.39,2.25,1.79l1.37.33c2.55.6,3.61,1.63,3.61,3.44,0,2.33-1.85,3.78-4.79,3.78-2.76,0-4.62-1.42-4.74-3.66Z"/><path class="cls-2" d="M90.09,19.29v2.14h1.72V22.9H90.09v5c0,.78.35,1.14,1.1,1.14a6,6,0,0,0,.61,0v1.46a5.89,5.89,0,0,1-1,.09c-1.83,0-2.55-.69-2.55-2.45V22.9H86.91V21.43h1.31V19.29Z"/><path class="cls-2" d="M92.81,26c0-2.85,1.68-4.64,4.29-4.64s4.3,1.79,4.3,4.64-1.66,4.64-4.3,4.64S92.81,28.82,92.81,26Zm6.69,0c0-2-.89-3.11-2.4-3.11S94.7,24,94.7,26s.9,3.11,2.4,3.11,2.4-1.15,2.4-3.11Z"/><path class="cls-2" d="M102.93,21.43h1.77V23h0a2.14,2.14,0,0,1,2.17-1.63,2.73,2.73,0,0,1,.64.07v1.73a2.62,2.62,0,0,0-.84-.11,1.87,1.87,0,0,0-1.94,1.8,1.43,1.43,0,0,0,0,.29v5.37h-1.86Z"/><path class="cls-2" d="M116.13,27.83c-.25,1.64-1.85,2.77-3.9,2.77-2.64,0-4.27-1.77-4.27-4.6s1.64-4.68,4.19-4.68,4.08,1.72,4.08,4.47v.63h-6.39v.12A2.35,2.35,0,0,0,112,29.09h.29a2.05,2.05,0,0,0,2.09-1.27Zm-6.29-2.71h4.53a2.17,2.17,0,0,0-2.05-2.29h-.17a2.29,2.29,0,0,0-2.31,2.27Z"/></svg>