<svg width="183" height="183" viewBox="0 0 183 183" fill="none" xmlns="http://www.w3.org/2000/svg">
<rect x="3" y="3" width="177" height="177" rx="88.5" fill="#C0FFE7" stroke="#00012E" stroke-width="6"/>
<g clip-path="url(#clip0)">
<path d="M97.2 109.7C117.634 109.7 134.2 93.1345 134.2 72.7C134.2 52.2655 117.634 35.7 97.2 35.7C76.7654 35.7 60.2 52.2655 60.2 72.7C60.2 93.1345 76.7654 109.7 97.2 109.7Z" stroke="#00012E" stroke-width="5.5" stroke-miterlimit="10"/>
<path d="M97.2 99.9C112.222 99.9 124.4 87.7221 124.4 72.7C124.4 57.6779 112.222 45.5 97.2 45.5C82.1779 45.5 70 57.6779 70 72.7C70 87.7221 82.1779 99.9 97.2 99.9Z" stroke="#00012E" stroke-width="5.5" stroke-miterlimit="10"/>
<path d="M112.6 81C117.2 72.5 113.9 61.9 105.4 57.3" stroke="#00012E" stroke-width="5.5" stroke-miterlimit="10"/>
<path d="M57.3 147.7L57 147.6C53.1 145.5 51.6 140.7 53.7 136.8L64.8 116C66.9 112.1 71.7 110.6 75.6 112.7L75.9 112.9C79.8 115 81.3 119.8 79.2 123.7L68.1 144.5C66 148.3 61.2 149.8 57.3 147.7Z" stroke="#00012E" stroke-width="5.5" stroke-miterlimit="10"/>
<path d="M85.5804 107.8L74.4709 101.856L70.2247 109.791L81.3342 115.736L85.5804 107.8Z" fill="#00012E"/>
</g>
<defs>
<clipPath id="clip0">
<rect width="86.9" height="118.4" fill="white" transform="translate(50 33)"/>
</clipPath>
</defs>
</svg>
